<?xml version="1.0" encoding="UTF-8"?><svg xmlns="http://www.w3.org/2000/svg" xmlns:xlink="http://www.w3.org/1999/xlink" height="417.6" preserveAspectRatio="xMidYMid meet" version="1.0" viewBox="0.0 -0.2 462.2 417.6" width="462.2" zoomAndPan="magnify"><g><g fill="#F5F5F5" id="change1_1"><path d="M14.791,185.606h79.918c1.951,0,3.532-1.582,3.532-3.532v-53.538v-5.628c0-1.951-1.582-3.532-3.532-3.532 H14.791c-1.951,0-3.532,1.582-3.532,3.532v5.628v53.538C11.258,184.024,12.84,185.606,14.791,185.606z" fill="inherit"/><path d="M234.584,299.23c0.215-0.056,0.386-0.231,0.417-0.461l0.313-2.35c0.045-0.336-0.217-0.635-0.556-0.635 h-0.116c0.11-0.437,0.175-0.892,0.175-1.364c0-3.075-2.493-5.568-5.568-5.568c-3.074,0-5.568,2.493-5.568,5.568 c0,0.471,0.065,0.927,0.175,1.364h-0.116c-0.34,0-0.601,0.299-0.556,0.636l0.314,2.349c0.031,0.231,0.201,0.405,0.417,0.461 l0.898,6.716h-10.477l0.161-2.664c2.962-0.625,5.193-3.258,5.193-6.403c0-2.869-1.859-5.308-4.434-6.189l0.209-3.47h-3.481h-7.815 h-2.321l1.128,18.726h-65.132l0.088-0.036v0.036h35.909v-1.402h-0.001c-3.127-0.944-6.254-1.635-9.381-2.086v-13.794h23.045h1.317 c0.766,0,1.467-0.622,1.565-1.388l6.416-50.087c0.098-0.767-0.445-1.388-1.211-1.388h-1.317h-70.002h-1.318 c-0.766,0-1.467,0.622-1.565,1.388l-6.416,50.087c-0.098,0.767,0.445,1.388,1.211,1.388h1.317h28.635v13.97h0.106 c-0.256,0.042-0.513,0.081-0.769,0.126c0.069-0.012,0.137-0.027,0.206-0.039l0.056-0.023l0.101-3.529l0,0 c-0.039-0.049-0.088-0.087-0.13-0.133c-0.172-0.218-0.389-0.395-0.642-0.514c-0.089-0.049-0.18-0.082-0.272-0.117l-6.822-2.88 c-0.061-0.03-0.117-0.061-0.182-0.089c-0.625-0.268-1.272-0.441-1.966-0.342l-8.976,1.648l1.616-0.297 c-0.432-0.161-0.879-0.289-1.353-0.338l-25.478-3.996l-8.887-24.094c-0.175-0.479-0.39-0.921-0.631-1.336 c-0.701-2.205-2.265-4.474-5.761-5.08c-0.594-0.103-1.158-0.2-1.71-0.294l0.349-5.419c3.829-1.648,6.094-5.48,5.921-9.445 l-0.051-1.112v0l0.005,0.117c0.836,1.08,1.316,2.414,1.316,3.811c0,0.164-0.016,0.327-0.028,0.49 c-0.521,0.055-0.934,0.481-0.934,1.018c0,0.574,0.465,1.039,1.038,1.039c0.574,0,1.04-0.465,1.04-1.039 c0-0.398-0.232-0.733-0.561-0.908c0.018-0.199,0.035-0.399,0.035-0.6c0-1.607-0.579-3.134-1.584-4.344 c0.658-0.857,1.071-1.911,1.071-3.076c0-1.519-0.677-2.868-1.729-3.803l0.294,6.467l0,0l-0.476-10.484 c-0.043-0.959-0.212-1.88-0.469-2.762c-0.004-1.045-0.163-2.054-0.458-3.003c-0.001,0.005-0.003,0.009-0.005,0.013 c0.001-0.004,0.003-0.007,0.004-0.01c0.033-0.119,0.082-0.225,0.11-0.347c-0.137-0.191-0.29-0.364-0.436-0.546 c0,0,0.001,0.001,0.001,0.001c-1.54-3.69-5.181-6.283-9.428-6.283h-1.851h-0.104h-2.235c-5.641,0-10.214,4.573-10.214,10.214 c0-0.138,0.015-0.271,0.021-0.408c-0.855,2.16-1.167,4.508-0.886,6.824c-1.289,0.924-2.138,2.42-2.138,4.127 c0,0.773,0.185,1.499,0.493,2.156c-0.002-0.005-0.006-0.01-0.008-0.015l-4.699,2.115c-5.546,2.496-8.018,9.015-5.523,14.56 c0.851,1.891,2.177,3.413,3.765,4.515c-1.286,1.162-2.285,2.665-2.861,4.491H28.244h-8.277v0h-2.996l5.977,36.287H0v5.202h17.91 L0.821,417.315h6.998l16.721-101.701l7.275,44.164v57.537h2.385h2.228h2.974v-51.524h20.098v51.524h2.385h2.228h2.975v-51.524 h1.36l8.472,51.524h2.385h2.817h1.796l-8.293-51.524h27.035v34.522l-0.135,0.961h0.099c-0.962,6.292-2.553,9.483-0.909,16.042 h31.825v0h1.418h2.975v-44.568l4.781,15.701c-0.184,0.056-0.322,0.222-0.322,0.424c0,0.248,0.202,0.45,0.45,0.45h0.138 l3.639,11.951h13.485c0.705,7.128-1.461,9.47,0.185,16.042h31.825c0,0,0.753-3.504-3.579-5.596 c-3.507-1.694-8.596-4.096-11.593-7.685c-0.171-0.205-0.33-0.414-0.482-0.622l15.169-92.263h34.191l17.455,106.167h2.385h2.817 h1.795l-17.088-106.167h17.089v-5.202h-16.584L234.584,299.23z M215.147,292.517c1.652,0.761,2.804,2.427,2.804,4.362 c0,2.14-1.406,3.956-3.342,4.576L215.147,292.517z M63.933,245.593c0.108,0.099,0.223,0.191,0.34,0.28 C64.156,245.784,64.041,245.693,63.933,245.593z M70.456,246.638l0.706,1.768l-0.785-1.744l0,0 C70.403,246.654,70.43,246.647,70.456,246.638z M71.146,246.337c0.021-0.011,0.042-0.023,0.064-0.035 C71.189,246.314,71.168,246.326,71.146,246.337z M70.982,253.955l0.402-4.993l-0.419,5.213L70.982,253.955z M72.8,244.955 c0.043-0.055,0.092-0.104,0.132-0.16C72.891,244.851,72.843,244.9,72.8,244.955z M73.795,242.771 c0.056-0.303,0.094-0.614,0.094-0.933C73.889,242.158,73.852,242.468,73.795,242.771z M73.171,244.407 c0.079-0.135,0.157-0.27,0.224-0.412C73.328,244.137,73.251,244.273,73.171,244.407z M73.546,243.637 c0.069-0.182,0.125-0.368,0.174-0.559C73.671,243.269,73.616,243.456,73.546,243.637z M72.64,238.513 C72.64,238.513,72.639,238.513,72.64,238.513c0.041-0.806,0.046-1.554,0.034-2.181C72.685,236.959,72.681,237.707,72.64,238.513z M72.057,224.24c0.419-0.389,0.878-0.734,1.372-1.026C72.935,223.506,72.477,223.852,72.057,224.24z M72.066,243.824 c0.258-0.61,0.401-1.282,0.401-1.986C72.467,242.542,72.324,243.213,72.066,243.824z M69.636,246.855 c-0.276,0.053-0.559,0.086-0.851,0.086C69.077,246.941,69.358,246.902,69.636,246.855z M69.351,246.54 c0.005-0.002,0.009-0.005,0.013-0.007C69.359,246.534,69.355,246.538,69.351,246.54z M110.826,346.527l5.36-6.211L110.826,346.527 L110.826,346.527z M109.8,346.527h-2.922l2.924-0.016c0-0.004,0.002-0.008,0.002-0.012 C109.804,346.508,109.8,346.517,109.8,346.527z M109.826,346.357c0.017-0.051,0.043-0.099,0.08-0.142 C109.869,346.258,109.844,346.306,109.826,346.357z M136.321,305.942l0.585,0.004h-0.585L136.321,305.942z M142.14,303.433 c-0.034,0.008-0.069,0.017-0.103,0.025l-0.001-0.002C142.071,303.448,142.105,303.441,142.14,303.433z M140.063,303.944 c-0.706,0.187-1.411,0.383-2.116,0.596C138.652,304.328,139.358,304.131,140.063,303.944z M137.981,302.546 c-0.011-0.001-0.022-0.003-0.034-0.004l-0.018-0.064C137.946,302.5,137.964,302.524,137.981,302.546z M88.824,229.794 C88.824,229.794,88.823,229.794,88.824,229.794c-0.089,0.179-0.167,0.366-0.269,0.533c0.206-0.34,0.39-0.7,0.548-1.083 c0.161,0.321,0.305,0.652,0.435,0.991c-0.132-0.337-0.274-0.67-0.435-0.991c-2.367,5.726-10.295,6.42-15.48,6.494 C78.63,235.664,86.18,234.998,88.824,229.794c0.111-0.225,0.215-0.458,0.311-0.698C89.042,229.338,88.935,229.568,88.824,229.794z M80.789,222.356c-0.212-0.04-0.427-0.059-0.64-0.089c0.314,0.044,0.628,0.086,0.938,0.152 C80.987,222.398,80.889,222.375,80.789,222.356z M81.278,222.469c0.434,0.099,0.866,0.208,1.29,0.348 c-0.088-0.029-0.176-0.056-0.264-0.083C81.967,222.629,81.623,222.547,81.278,222.469z M83.329,223.109 c0.214,0.085,0.433,0.155,0.643,0.251c-0.029-0.013-0.059-0.024-0.088-0.037C83.703,223.242,83.514,223.182,83.329,223.109z M87.973,226.113c-0.367-0.362-0.753-0.694-1.151-1.008C87.219,225.419,87.606,225.752,87.973,226.113z M83.995,223.372 c0.964,0.441,1.884,0.993,2.739,1.656C85.879,224.365,84.959,223.813,83.995,223.372z M79.429,222.168 c-0.048-0.004-0.095-0.012-0.142-0.016C79.335,222.155,79.382,222.164,79.429,222.168z M77.434,222.109h0.279v0.008 c-0.827,0.029-1.654,0.133-2.472,0.311C75.938,222.224,76.672,222.109,77.434,222.109z M73.479,223.184 c0.158-0.092,0.321-0.176,0.485-0.258C73.8,223.007,73.637,223.092,73.479,223.184z M74.084,222.868 c0.163-0.077,0.329-0.149,0.498-0.215C74.413,222.719,74.247,222.791,74.084,222.868z M74.697,222.61 c0.178-0.066,0.358-0.129,0.542-0.182C75.055,222.481,74.875,222.544,74.697,222.61z M71.916,224.371 c-0.105,0.102-0.205,0.209-0.305,0.317C71.711,224.579,71.811,224.473,71.916,224.371z M71.429,224.89 c-0.088,0.102-0.174,0.206-0.257,0.313C71.255,225.096,71.341,224.992,71.429,224.89z M70.983,225.458 c-0.073,0.101-0.146,0.202-0.214,0.307C70.837,225.66,70.91,225.56,70.983,225.458z M70.561,226.11 c-0.058,0.1-0.118,0.199-0.172,0.302C70.442,226.31,70.502,226.211,70.561,226.11z M70.116,226.983 c-0.035,0.082-0.065,0.167-0.097,0.25C70.051,227.15,70.081,227.065,70.116,226.983z M69.861,227.667 c-0.029,0.091-0.055,0.182-0.082,0.274C69.805,227.849,69.831,227.758,69.861,227.667z M69.665,228.388 c-0.021,0.091-0.041,0.181-0.058,0.273C69.624,228.569,69.644,228.479,69.665,228.388z M69.531,229.158 c-0.01,0.08-0.023,0.16-0.03,0.241C69.508,229.318,69.521,229.238,69.531,229.158z M69.463,236.785 c0.765,0.104,1.462,0.396,2.079,0.801c-0.618-0.397-1.316-0.681-2.079-0.783V236.785z M67.368,246.941c-0.001,0-0.003,0-0.004,0 c0,0-0.001,0-0.001,0c-0.315,0-0.619-0.038-0.917-0.093c0.299,0.054,0.603,0.093,0.917,0.093 C67.365,246.941,67.367,246.941,67.368,246.941z M65.29,246.493c-0.247-0.111-0.485-0.237-0.709-0.385 C64.805,246.255,65.042,246.383,65.29,246.493z M66.173,246.787c-0.209-0.051-0.412-0.114-0.61-0.189 C65.761,246.673,65.964,246.737,66.173,246.787z M65.264,237.197c-0.171,0.077-0.332,0.171-0.491,0.266 C64.93,237.365,65.093,237.274,65.264,237.197z M63.596,245.255c-0.073-0.08-0.139-0.165-0.206-0.249 C63.458,245.09,63.524,245.175,63.596,245.255z M59.352,263.259c-0.076,0.031-0.15,0.063-0.225,0.096 C59.202,263.323,59.277,263.29,59.352,263.259z M58.21,263.801c-0.01,0.006-0.021,0.01-0.031,0.016 C58.189,263.811,58.2,263.806,58.21,263.801z M57.198,264.437c-0.001,0-0.001,0.001-0.002,0.001 C57.197,264.438,57.198,264.437,57.198,264.437z M119.547,404.034c-0.928-1.326-1.48-2.189-1.811-2.761h12.609v10.654 c-0.128-0.069-0.246-0.141-0.384-0.208C126.454,410.025,122.229,407.864,119.547,404.034z M172.128,386.547l-12.727-56.397 c-1.626-7.208-6.026-12.484-13.4-12.963l-17.375-1.161c-0.278-0.033-0.554-0.073-0.839-0.092l-35.413-2.324 c-0.656-0.86-1.374-1.677-2.125-2.461h94.014L172.128,386.547z" fill="inherit"/><path d="M373.384,104.376h33.824c2.178,3.664,6.165,6.127,10.737,6.127c6.901,0,12.495-5.594,12.495-12.495 c0-5.987-4.213-10.985-9.835-12.205V45.035c0-2.173-1.762-3.935-3.935-3.935h-43.286c-2.173,0-3.935,1.762-3.935,3.935v55.406 C369.449,102.614,371.211,104.376,373.384,104.376z M413.125,88.968c0.279-0.149,0.565-0.287,0.859-0.411 C413.691,88.681,413.405,88.819,413.125,88.968z M414.096,88.517c0.269-0.109,0.541-0.212,0.821-0.298 C414.638,88.305,414.365,88.407,414.096,88.517z M415.182,88.15c0.235-0.066,0.469-0.132,0.71-0.181 C415.651,88.018,415.416,88.085,415.182,88.15z M410.752,90.716c0.692-0.683,1.48-1.269,2.344-1.734 C412.233,89.448,411.445,90.033,410.752,90.716z M407.808,90.721c0,0,0.001-0.001,0.001-0.001 C407.809,90.721,407.809,90.721,407.808,90.721L407.808,90.721z M408.754,89.563c-0.02,0.022-0.039,0.043-0.059,0.065 C408.715,89.607,408.735,89.585,408.754,89.563z M409.743,88.597c0.01-0.008,0.019-0.017,0.028-0.026 C409.762,88.58,409.753,88.589,409.743,88.597z M406.281,93.555L406.281,93.555L406.281,93.555L406.281,93.555z M416.405,87.891 c0.166-0.025,0.329-0.058,0.497-0.075C416.734,87.832,416.571,87.866,416.405,87.891z M412.14,86.948 c0.034-0.018,0.069-0.032,0.103-0.05C412.209,86.916,412.174,86.93,412.14,86.948z M413.368,86.39 c0.117-0.046,0.236-0.087,0.354-0.13C413.604,86.303,413.485,86.344,413.368,86.39z M414.676,85.96 c0.145-0.039,0.29-0.078,0.437-0.112C414.966,85.882,414.821,85.921,414.676,85.96z M416.094,85.665 c0.141-0.021,0.279-0.048,0.421-0.064C416.374,85.617,416.235,85.644,416.094,85.665z M405.51,96.809 c-0.038,0.395-0.061,0.794-0.061,1.199c0,0.378,0.024,0.75,0.057,1.12c-0.033-0.369-0.057-0.741-0.057-1.12 C405.45,97.603,405.471,97.204,405.51,96.809z M405.931,94.606c-0.003,0.013-0.006,0.026-0.01,0.038 C405.925,94.632,405.927,94.619,405.931,94.606z M405.674,95.681c-0.019,0.099-0.029,0.2-0.045,0.299 C405.646,95.881,405.655,95.78,405.674,95.681z M406.13,102.047c0.034,0.1,0.072,0.199,0.109,0.298 C406.202,102.246,406.165,102.148,406.13,102.047z M405.541,99.462c0.032,0.281,0.076,0.558,0.127,0.832 C405.617,100.02,405.574,99.743,405.541,99.462z M405.774,100.799c0.052,0.226,0.109,0.451,0.173,0.672 C405.882,101.25,405.826,101.025,405.774,100.799z M407.766,96.872c-0.042,0.373-0.066,0.752-0.066,1.136 C407.699,97.624,407.724,97.245,407.766,96.872z M408.728,93.556c-0.157,0.325-0.297,0.661-0.421,1.004 C408.43,94.216,408.57,93.881,408.728,93.556z M408.284,94.621c-0.111,0.313-0.203,0.635-0.284,0.961 C408.08,95.255,408.174,94.935,408.284,94.621z M407.96,95.738c-0.069,0.299-0.119,0.604-0.161,0.912 C407.841,96.341,407.893,96.037,407.96,95.738z M419.332,85.594c-0.014-0.001-0.027-0.005-0.041-0.006 C419.305,85.59,419.318,85.593,419.332,85.594z" fill="inherit"/><path d="M441.901,391.53h-25.702l-2.732-16.109h2.33l-11.946-82.536l-2.57-42.257 c-0.003,0.001-0.005,0.001-0.008,0.002c0.869-0.193,1.741-0.403,2.618-0.641c0,0,0.75-14.807,1.096-19.005 c0.43-5.223,2.523-20.805,2.524-20.815l-0.347,1.263l0.347-1.263l3.399-11.761c0.854-2.961,0.112-6.158-1.969-8.431 c-3.182-3.479-9.427-7.392-17.358-12.75c0,0-0.151,0.114-0.411,0.297c0.052-0.037,0.104-0.073,0.146-0.104l0.024-6.55l0.005-1.198 l0.012,1.095c0.41-0.785,0.794-1.699,1.133-2.592c0.026-0.002,0.048,0.001,0.075-0.001c0.562-0.052,1.248-0.251,1.878-0.803 c1.556-1.366,2.784-3.547,1.08-5.347c0,0-0.003-0.004-0.007-0.004c-0.004-0.004-0.008-0.008-0.012-0.012 c-0.344-0.266-2.541-1.775-3.974,1.728c0,0-0.253-0.18-0.569-0.473c0.271,0.235,0.477,0.375,0.477,0.375 c1.5-3.832,3.999-1.749,3.999-1.749c8.141-12.612-0.923-13.73-0.923-13.73c-9.279-9.599-9.63-2.776-9.63-2.776 c-11.379-6.775-9.797,0.474-9.797,0.474c-4.94,1.049-1.842,4.14-1.842,4.14c-1.965,2.009-0.008,3.225,3.164,3.962 c-1.96,5.676-5.425,18.262,2.309,18.539l-0.007,0.035l-0.008,0.025l-0.622,2.55l-0.631,2.58c1.155,4.662,5.196,4.145,8.662,2.688 c-3.583,1.509-7.779,2.02-8.773-3.149c0,0-5.669,1.81-12.199,5.473c-1.296,0.728-2.111,2.1-2.501,3.537l-1.628,5.802 c-0.198-0.095-0.411-0.163-0.642-0.163h-1.705h-6.406V78.34V59.83h-63.563l-1.007-13.366c0.025-0.13,0.022-0.239,0.037-0.362 c0.69-0.947,1.145-2.153,1.217-3.654c0.257-5.385,0.092-14.197-0.046-16.179c-0.113-1.632-2.391-1.844-2.392,0.423 c0,1.146-0.133,2.482-0.293,4.537c-0.165-2.539-0.418-6.187-0.59-7.401c-0.209-1.472-2.304-1.72-2.561-0.177 c0.002,0.425-0.017,0.73-0.028,0.395c-0.004-0.144,0.008-0.273,0.028-0.395c-0.001-0.249-0.009-0.539-0.03-0.765 c-0.146-1.562-2.547-1.727-2.931,0.079l-0.7,6.885c-0.193-2.378-0.424-5.031-0.582-6.142c-0.26-1.831-2.99-1.699-2.92,0.578 c0.062,2.001-0.025,10.513-0.047,12.553c-0.074-0.001-0.148,0.009-0.217,0.047c-0.002,0.001-0.003,0.003-0.005,0.004 c-0.315-0.567-0.684-1.213-0.975-1.686c-1.481-2.414-2.942-2.74-3.65-2.411c-0.637,0.296-0.519,0.605-0.08,1.865 c1.003,2.881,1.378,7.377,5.323,11.303c0.234,0.233,0.482,0.442,0.734,0.644l-0.79,13.226h-5.631 c-0.247-2.847-0.5-5.693-0.855-8.533c-0.399-3.193-2.436-5.773-5.158-7.026c0.002-0.011,0.006-0.041,0.006-0.041 c-6.309-2.724-12.473-4.511-18.583-5.389l0.101,1.334l-0.852-11.292c1.703-0.296,8.558-1.879,7.782-8.099 c0,0,5.373-6.167,0.04-10.971c0.06-5.574-2.946-8.281-8.548-8.552c0,0-12.661-1.077-15.477-1.249 c-4.01-0.249-4.174,3.221-2.984,7.914c0.068,0.27,0.171,0.501,0.288,0.715c-0.358,0.709-0.656,1.456-0.878,2.238 c-0.018,0.064-0.029,0.131-0.046,0.195c-0.088,0.329-0.172,0.66-0.234,0.999c-0.076,0.411-0.132,0.83-0.167,1.256 c-0.042,0.503-0.045,0.999-0.028,1.491c0.005,0.152,0.021,0.301,0.031,0.452c0.024,0.345,0.059,0.686,0.111,1.024 c0.025,0.161,0.052,0.321,0.082,0.481c0.065,0.341,0.146,0.676,0.239,1.008c0.037,0.132,0.068,0.265,0.109,0.395 c0.14,0.447,0.312,0.881,0.5,1.306c0-0.004,0-0.01,0.001-0.015c-0.017,0.37-0.021,0.583-0.021,0.583l0.121,7.041 c0.054,3.186,1.634,6.062,4.056,7.813l-0.033,3.756c-5.919,0.724-11.858,2.318-17.899,4.839c-0.01,0.004-0.018,0.01-0.028,0.014 c-2.133,0.74-3.972,2.306-4.992,4.526l-5.88,11.787h-4.058c-0.054-1.01-0.099-1.97-0.047-2.878 c0.099-1.723,0.135-2.148-0.713-2.325c-0.942-0.197-2.854,0.882-3.797,4.381c-0.075,0.28-0.153,0.554-0.23,0.822h-1.272 c-0.749-2.21-1.332-3.768-1.395-3.934c-0.003-0.008-0.005-0.015-0.009-0.023c0-0.001-0.004-0.01-0.004-0.01l-0.001,0 c-0.258-0.616-0.791-1.094-1.5-1.224c-1.167-0.214-2.249,0.599-2.403,1.751l-1.203,0.162c-0.016-0.325-0.032-0.594-0.049-0.763 c-0.113-1.161-1.074-2.051-2.236-1.949c-1.113,0.097-1.916,1.053-1.874,2.127c-0.395-0.923-1.356-1.484-2.36-1.238 c-0.885,0.216-1.476,0.972-1.545,1.814c-0.465-0.554-1.203-0.825-1.939-0.602c-1.07,0.325-1.61,1.517-1.146,2.533l0.752,1.355 h-46.236v-4.288v-8.625c0-3.917-3.175-7.092-7.092-7.092H77.482c-3.917,0-7.092,3.175-7.092,7.092v8.625v8.625 c0,3.917,3.175,7.092,7.092,7.092h38.48v7.081v142.021h223.871c-0.06,0.13-0.099,0.269-0.099,0.415 c0,0.195,0.058,0.398,0.188,0.579c0.442,0.615,1.039,1.108,1.73,1.419l9.347,4.25c1.017,0.463,2.125,0.702,3.243,0.702h4.058 c0.025,0,0.043,0,0.065,0.007c0.109,0.022,0.516,0.104,1.142,0.23l-0.24,1.283l-3.108,15.058l-28.51,26.68 c-5.43,6.516-1.448,15.566-1.448,15.566l19.186,65.522h3.74c0.121,1.65,0.062,3.288-0.381,4.541 c-1.833,5.192-6.89,5.079-9.621,5.65c-5.921,1.239-7.368,4.704-7.596,5.375h-50.085v48.847h160.455h20.272V391.53H441.901z M245.718,26.975l-0.168,0.513l-0.352,1.07L245.718,26.975c0.083,0.204,0.219,0.365,0.373,0.496 C245.937,27.34,245.801,27.179,245.718,26.975z M246.431,27.67c0.187,0.067,0.386,0.099,0.599,0.045 C246.818,27.769,246.618,27.737,246.431,27.67z M250.078,24.171c0.021-0.247,0.021-0.488,0.013-0.725c0,0,0,0,0,0 C250.099,23.683,250.099,23.924,250.078,24.171z M250.077,23.229c0,0,0,0.001,0,0.001c-0.012-0.167-0.032-0.329-0.058-0.489 c0,0,0,0.001,0,0.001C250.045,22.901,250.064,23.063,250.077,23.229z M249.881,22.143c-0.017-0.058-0.029-0.12-0.047-0.176 c0,0,0,0,0,0C249.853,22.023,249.864,22.085,249.881,22.143z M249.711,21.657C249.711,21.658,249.712,21.658,249.711,21.657 c-0.029-0.07-0.06-0.141-0.093-0.208c0,0,0,0.001,0.001,0.001C249.652,21.517,249.682,21.587,249.711,21.657z M249.409,21.073 c-0.004-0.006-0.008-0.011-0.011-0.016c0,0,0,0,0,0C249.402,21.063,249.406,21.068,249.409,21.073z M249.061,20.618 c-0.006-0.006-0.013-0.012-0.019-0.018C249.048,20.606,249.055,20.611,249.061,20.618z M248.238,20.036 c-0.16-0.061-0.326-0.105-0.5-0.12C247.912,19.932,248.078,19.974,248.238,20.036z M248.677,20.277 c-0.043-0.03-0.09-0.051-0.135-0.078C248.587,20.227,248.634,20.246,248.677,20.277z M226.136,18.08 c0.01-0.123,0.023-0.251,0.035-0.383C226.159,17.829,226.147,17.957,226.136,18.08z M226.065,19.027 c0.005-0.077,0.01-0.154,0.015-0.239C226.075,18.872,226.07,18.949,226.065,19.027z M226.095,18.592 c0.007-0.097,0.015-0.197,0.024-0.302C226.11,18.396,226.102,18.495,226.095,18.592z M226.346,16.191 c-0.063,0.473-0.115,0.915-0.156,1.318C226.231,17.106,226.282,16.664,226.346,16.191z M227.492,10.662 c0.086-0.298,0.177-0.598,0.273-0.898C227.668,10.065,227.578,10.364,227.492,10.662z M226.375,15.985 c0.025-0.176,0.051-0.355,0.079-0.539C226.425,15.629,226.399,15.809,226.375,15.985z M226.49,15.209 c0.03-0.189,0.062-0.383,0.096-0.579C226.552,14.826,226.52,15.02,226.49,15.209z M226.624,14.409 c0.096-0.537,0.207-1.095,0.336-1.67C226.832,13.313,226.72,13.872,226.624,14.409z M227.019,12.486 c0.048-0.206,0.097-0.413,0.15-0.622C227.116,12.073,227.067,12.28,227.019,12.486z M227.245,11.566 c0.054-0.207,0.11-0.415,0.169-0.624C227.355,11.151,227.298,11.36,227.245,11.566z M371.029,249.982 c0.122,0.03,0.246,0.059,0.369,0.089C371.275,250.041,371.151,250.011,371.029,249.982z M372.693,250.369 c0.123,0.027,0.247,0.053,0.371,0.08C372.94,250.423,372.816,250.396,372.693,250.369z M389.494,178.623 c-0.388,0.237-0.817,0.487-1.276,0.736C388.677,179.109,389.105,178.859,389.494,178.623z M389.833,178.413 c-0.089,0.056-0.177,0.111-0.272,0.169C389.656,178.524,389.744,178.468,389.833,178.413z M390.122,233.677 c-0.23-0.036-0.465-0.073-0.704-0.112C389.657,233.603,389.892,233.64,390.122,233.677z M388.987,233.496 c-0.248-0.04-0.501-0.082-0.758-0.124C388.485,233.414,388.739,233.455,388.987,233.496z M387.797,233.3 c-0.283-0.047-0.573-0.096-0.864-0.146C387.225,233.204,387.514,233.253,387.797,233.3z M386.564,233.092 c-0.405-0.069-0.816-0.14-1.234-0.213C385.748,232.952,386.16,233.023,386.564,233.092z M385.294,232.873 c-0.453-0.079-0.912-0.159-1.378-0.242C384.382,232.714,384.841,232.794,385.294,232.873z M383.823,232.615 c-0.427-0.076-0.858-0.152-1.293-0.231C382.966,232.462,383.397,232.539,383.823,232.615z M382.269,232.337 c-0.377-0.068-0.756-0.136-1.137-0.206C381.514,232.201,381.893,232.269,382.269,232.337z M380.769,232.065 c-0.354-0.064-0.708-0.129-1.065-0.195C380.06,231.935,380.415,232,380.769,232.065z M379.326,231.8 c-0.349-0.064-0.697-0.129-1.047-0.194C378.628,231.671,378.977,231.736,379.326,231.8z M377.845,231.526 c-0.346-0.065-0.692-0.129-1.038-0.194C377.153,231.396,377.499,231.461,377.845,231.526z M376.427,231.26 c-0.381-0.072-0.76-0.143-1.139-0.215C375.667,231.117,376.047,231.189,376.427,231.26z M375.016,230.994 c-1.908-0.361-3.782-0.721-5.546-1.064C371.234,230.273,373.108,230.633,375.016,230.994z M369.035,229.846 c-0.32-0.062-0.637-0.124-0.948-0.185C368.398,229.722,368.716,229.784,369.035,229.846z M367.893,229.623 c-0.363-0.071-0.72-0.141-1.07-0.209C367.173,229.483,367.53,229.553,367.893,229.623z M390.529,233.74 c0.22,0.034,0.434,0.066,0.645,0.098C390.963,233.806,390.749,233.774,390.529,233.74z M391.581,233.898 c0.203,0.03,0.398,0.058,0.592,0.085C391.979,233.956,391.784,233.928,391.581,233.898z M392.529,234.034 c0.209,0.029,0.406,0.055,0.602,0.08C392.935,234.089,392.738,234.063,392.529,234.034z M393.398,234.149 c0.274,0.035,0.535,0.066,0.777,0.093C393.933,234.215,393.672,234.184,393.398,234.149z M390.959,177.673 c0.052-0.036,0.104-0.072,0.15-0.104C391.062,177.602,391.012,177.636,390.959,177.673z M389.975,178.324 c0.079-0.05,0.153-0.098,0.227-0.146C390.127,178.226,390.054,178.273,389.975,178.324z M390.347,178.084 c0.068-0.045,0.133-0.087,0.196-0.129C390.48,177.996,390.416,178.039,390.347,178.084z M390.68,177.863 c0.057-0.038,0.112-0.075,0.164-0.111C390.791,177.788,390.737,177.824,390.68,177.863z M389.927,155.09 c-0.005,0.026-0.009,0.047-0.015,0.073c-0.549-0.008-2.086-0.04-4.046-0.154C388.216,155.103,389.927,155.09,389.927,155.09z M386.642,180.146c-0.165,0.075-0.331,0.147-0.498,0.219C386.312,180.293,386.478,180.22,386.642,180.146z M388.212,179.362 c-0.143,0.078-0.29,0.155-0.439,0.232C387.922,179.517,388.069,179.44,388.212,179.362z M387.7,179.633 c-0.146,0.076-0.296,0.15-0.447,0.224C387.405,179.783,387.554,179.708,387.7,179.633z M387.177,179.894 c-0.154,0.075-0.309,0.148-0.466,0.22C386.868,180.042,387.024,179.969,387.177,179.894z M360.446,194.06L360.446,194.06 l-0.337-1.113L360.446,194.06z M363.245,228.709c-0.532-0.106-1.026-0.204-1.486-0.295 C362.221,228.505,362.71,228.603,363.245,228.709z M366.588,229.368c-0.316-0.062-0.625-0.123-0.928-0.182 C365.963,229.245,366.272,229.306,366.588,229.368z M365.355,229.126c-0.279-0.055-0.55-0.108-0.816-0.161 C364.805,229.018,365.076,229.071,365.355,229.126z M364.238,228.906c-0.324-0.064-0.636-0.126-0.939-0.186 C363.601,228.779,363.916,228.842,364.238,228.906z M384.075,251.962c-0.033-0.002-0.067-0.003-0.1-0.005 C384.008,251.959,384.042,251.96,384.075,251.962z M382.171,251.824c-0.071-0.006-0.143-0.011-0.214-0.017 C382.028,251.814,382.1,251.818,382.171,251.824z M380.272,251.635c-0.094-0.011-0.188-0.02-0.281-0.031 C380.083,251.616,380.178,251.625,380.272,251.635z M378.4,251.398c-0.107-0.015-0.216-0.029-0.322-0.044 C378.185,251.37,378.293,251.383,378.4,251.398z M376.57,251.118c-0.116-0.019-0.233-0.037-0.348-0.057 C376.337,251.081,376.454,251.099,376.57,251.118z M374.786,250.8c-0.119-0.023-0.24-0.045-0.358-0.068 C374.546,250.755,374.667,250.777,374.786,250.8z M369.797,249.669c-0.121-0.032-0.242-0.064-0.362-0.096 C369.554,249.605,369.676,249.637,369.797,249.669z M368.267,249.25c-0.119-0.034-0.237-0.068-0.355-0.102 C368.029,249.182,368.148,249.216,368.267,249.25z M366.809,248.82c-0.115-0.035-0.228-0.07-0.341-0.105 C366.581,248.75,366.695,248.785,366.809,248.82z M365.427,248.382c-0.109-0.036-0.216-0.071-0.324-0.107 C365.21,248.311,365.318,248.346,365.427,248.382z M364.133,247.946c-0.108-0.037-0.212-0.074-0.318-0.112 C363.92,247.872,364.025,247.909,364.133,247.946z M362.918,247.513c-0.102-0.038-0.201-0.075-0.302-0.112 C362.717,247.438,362.816,247.475,362.918,247.513z M361.791,247.089c-0.095-0.037-0.185-0.072-0.278-0.108 C361.605,247.016,361.696,247.052,361.791,247.089z M360.754,246.68c-0.088-0.035-0.17-0.07-0.255-0.104 C360.584,246.61,360.667,246.644,360.754,246.68z M359.814,246.291c-0.081-0.034-0.155-0.066-0.233-0.1 C359.659,246.225,359.734,246.257,359.814,246.291z M358.971,245.928c-0.072-0.031-0.136-0.061-0.205-0.091 C358.835,245.868,358.9,245.897,358.971,245.928z M358.23,245.596c-0.064-0.029-0.119-0.055-0.18-0.083 C358.11,245.541,358.167,245.567,358.23,245.596z M357.596,245.302c-0.057-0.027-0.103-0.049-0.156-0.075 C357.492,245.252,357.54,245.275,357.596,245.302z M357.066,245.047c-0.046-0.022-0.081-0.04-0.124-0.061 C356.984,245.007,357.021,245.025,357.066,245.047z M356.653,244.843c-0.052-0.026-0.087-0.044-0.131-0.067 C356.566,244.798,356.603,244.817,356.653,244.843z M356.353,244.689c-0.043-0.022-0.066-0.035-0.098-0.051 C356.287,244.654,356.311,244.668,356.353,244.689z M368.777,391.53v-23.892h-4.627l-2.64-15.566h4.874l-14.48-65.884 c8.132-4.832,14.8-9.304,20.291-13.414l-1.375-10.543l2.466,18.903c0.029,0.227,0.223,0.392,0.445,0.392 c0.02,0,0.039-0.001,0.06-0.004c0.039-0.005,0.072-0.022,0.106-0.036c0,0,0,0,0,0l2.081,13.571l19.548,80.364h5.594 c0.163,1.789,0.137,3.602-0.343,4.961c-1.833,5.192-6.891,5.079-9.621,5.65c-6.567,1.375-7.635,5.498-7.635,5.498H368.777z M374.12,281.288c-0.004,0.007-0.006,0.014-0.01,0.02C374.114,281.302,374.116,281.295,374.12,281.288z" fill="inherit"/></g><g id="change1_2"><path d="M347.784,75.07h-36.558V64.605h36.558V75.07z M378.707,85.055h32.582c0.782,0,1.417-0.634,1.417-1.417 s-0.634-1.417-1.417-1.417h-32.582c-0.782,0-1.417,0.634-1.417,1.417S377.924,85.055,378.707,85.055z M352.26,78.34H115.962 v142.021H352.26V78.34z M348.505,391.53v-23.892h-67.06v48.847h160.455V391.53H348.505z M378.707,93.555h30.022 c-0.653,1.348-1.029,2.855-1.029,4.453c0,5.658,4.587,10.245,10.246,10.245c5.658,0,10.245-4.587,10.245-10.245 c0-5.658-4.587-10.245-10.245-10.245c-2.807,0-5.348,1.131-7.198,2.959h-32.04c-0.782,0-1.417,0.634-1.417,1.417 S377.924,93.555,378.707,93.555z M401.136,68.055h10.152c0.782,0,1.417-0.634,1.417-1.417c0-0.782-0.634-1.417-1.417-1.417h-10.152 c-0.782,0-1.417,0.634-1.417,1.417C399.72,67.421,400.354,68.055,401.136,68.055z M378.707,76.555h32.582 c0.782,0,1.417-0.634,1.417-1.417v0c0-0.782-0.634-1.417-1.417-1.417h-32.582c-0.782,0-1.417,0.634-1.417,1.417v0 C377.29,75.921,377.924,76.555,378.707,76.555z M379.272,68.076h13.537c1.087,0,1.968-0.881,1.968-1.968V54.146 c0-1.087-0.881-1.968-1.968-1.968h-13.537c-1.086,0-1.968,0.881-1.968,1.968v11.963C377.305,67.195,378.186,68.076,379.272,68.076z M94.817,346.527H49.621l-11.088-68.249c-0.888-4.987-5.224-8.618-10.289-8.618h-8.277l15.085,90.929h-0.851v56.727h5.202v-56.727 h67.87C107.272,352.822,101.696,346.527,94.817,346.527z M137.936,305.946h35.909v-1.402h-35.909V305.946z M194.276,235.8h-71.32 c-0.766,0-1.467,0.622-1.565,1.388l-6.416,50.087c-0.098,0.767,0.445,1.388,1.211,1.388h29.952v13.97h17.144v-13.97h24.224 c0.766,0,1.467-0.622,1.565-1.388l6.416-50.087C195.585,236.422,195.043,235.8,194.276,235.8z M98.241,182.073v-59.166 c0-1.951-1.582-3.532-3.532-3.532H14.791c-1.951,0-3.532,1.582-3.532,3.532v59.166c0,1.951,1.582,3.532,3.532,3.532h79.918 C96.66,185.606,98.241,184.024,98.241,182.073z M229.25,288.854c-3.074,0-5.568,2.493-5.568,5.568c0,0.471,0.065,0.927,0.175,1.364 h10.786c0.11-0.437,0.175-0.892,0.175-1.364C234.818,291.346,232.325,288.854,229.25,288.854z M67.365,246.941h1.421 c2.818,0,5.104-2.285,5.104-5.103c0-2.586-1.931-4.701-4.426-5.035v0.394c1.768,0.802,3.004,2.573,3.004,4.641 C72.467,244.656,70.182,246.94,67.365,246.941z M90.864,245.33c0.861-0.914,1.398-2.137,1.398-3.492 c0-1.519-0.677-2.868-1.729-3.803L90.864,245.33z M89.632,62.117c0.225-0.225,0.225-0.59,0-0.814l-5.37-5.369l5.37-5.369 c0.225-0.225,0.225-0.59,0-0.814s-0.59-0.225-0.814,0l-6.183,6.184l6.183,6.184c0.112,0.112,0.26,0.168,0.407,0.168 S89.52,62.229,89.632,62.117z M109.671,62.117l6.184-6.184l-6.184-6.184c-0.225-0.225-0.59-0.225-0.814,0 c-0.225,0.226-0.225,0.59,0,0.814l5.371,5.369l-5.371,5.369c-0.225,0.225-0.225,0.589,0,0.814c0.112,0.112,0.26,0.168,0.407,0.168 S109.559,62.229,109.671,62.117z M97.337,61.938l4.872-11.314c0.126-0.292-0.009-0.63-0.301-0.756 c-0.294-0.128-0.63,0.008-0.756,0.301L96.28,61.483c-0.126,0.292,0.009,0.63,0.301,0.756c0.074,0.032,0.151,0.047,0.228,0.047 C97.031,62.286,97.243,62.156,97.337,61.938z" fill="#F5F5F5"/></g><g id="change2_1"><path d="M462.172,391.53v24.956h-20.272V391.53H462.172z M348.505,391.53h20.272v-23.892h-20.272V391.53z M38.533,278.278l11.088,68.249H80.71l-11.089-68.249c-0.888-4.987-5.224-8.618-10.288-8.618H28.244 C33.309,269.659,37.645,273.291,38.533,278.278z M138.1,321.395c1.705,2.789,2.435,6.314,2.168,10.478l-2.335,31.788v2.13v51.524 h-2.975h-2.227h-2.385v-27.993h-20.097v27.993h-2.975h-2.227h-2.385v-51.524H67.088v51.524h-2.975h-2.228h-2.385v-51.524H36.428 v51.524h-4.613v-57.537l-14.845-90.118h5.203l14.978,90.929h22.349h43.159h2.385h2.227h0c0-7.766-5.577-14.062-12.456-14.062H109.8 c-0.004-0.11,0.029-0.222,0.106-0.312l5.598-6.487c0.162-0.189,0.447-0.209,0.635-0.047c0.188,0.162,0.209,0.446,0.047,0.635 l-5.36,6.211h14.651c5.79,0,10.643,4.466,12.039,10.509l1.854-25.224c0.255-3.971-0.431-7.319-2.037-9.947 c-0.13-0.212-0.062-0.488,0.149-0.618C137.693,321.117,137.97,321.183,138.1,321.395z M130.345,388.422v-22.631h-20.097v22.631 H130.345z M172.331,388.422h-29.489c-0.248,0-0.45,0.202-0.45,0.45s0.202,0.45,0.45,0.45h29.489c0.248,0,0.45-0.202,0.45-0.45 S172.579,388.422,172.331,388.422z M81.51,314.557c0.025,0.005,0.051,0.007,0.076,0.007c0.066,0,0.13-0.015,0.188-0.042 c0.384-0.04,2.154-0.133,10.238-0.188c0.249-0.002,0.449-0.205,0.447-0.453s-0.203-0.447-0.45-0.447c-0.001,0-0.002,0-0.003,0 c-10.841,0.075-10.842,0.086-10.886,0.636C81.101,314.302,81.279,314.518,81.51,314.557z M195.593,235.8h-71.319 c-0.767,0-1.468,0.622-1.566,1.388l-6.415,50.087c-0.098,0.767,0.444,1.388,1.211,1.388h28.635v-17.065l0.518-3.121 c0.382-2.302,2.373-3.99,4.705-3.99h0.086c-2.281,0-4.13,1.849-4.13,4.13v33.841c-3.128,0.451-6.255,1.142-9.383,2.086h35.909 c-3.127-0.944-6.255-1.635-9.382-2.086v-13.794h24.362c0.766,0,1.467-0.622,1.565-1.388l6.416-50.087 C196.902,236.422,196.36,235.8,195.593,235.8z M219.692,296.879c0,3.146-2.231,5.779-5.193,6.403l-0.164,2.704h-3.481h-5.552 h-2.321l-1.131-18.766h2.321h7.815h3.481l-0.209,3.47C217.832,291.572,219.692,294.01,219.692,296.879z M217.951,296.879 c0-1.935-1.152-3.602-2.804-4.362l-0.538,8.938C216.545,300.835,217.951,299.019,217.951,296.879z M234.759,295.785h-11.018 c-0.34,0-0.601,0.299-0.556,0.636l0.314,2.349c0.031,0.231,0.201,0.405,0.417,0.461l0.903,6.752h8.864l0.902-6.752 c0.215-0.056,0.386-0.231,0.417-0.461l0.313-2.35C235.359,296.084,235.098,295.785,234.759,295.785z M293.272,104.287h51.55V91.832 h-51.55V104.287z M420.605,45.035v40.768c-0.858-0.186-1.746-0.29-2.66-0.29c-4.178,0-7.868,2.058-10.136,5.208h-29.102 c-0.782,0-1.417,0.634-1.417,1.417s0.634,1.417,1.417,1.417h27.575c-0.529,1.385-0.832,2.882-0.832,4.453 c0,2.329,0.649,4.501,1.759,6.368h-33.824c-2.173,0-3.935-1.762-3.935-3.935V45.035c0-2.173,1.762-3.935,3.935-3.935h43.286 C418.843,41.1,420.605,42.862,420.605,45.035z M377.305,66.109c0,1.087,0.881,1.968,1.968,1.968h13.537 c1.087,0,1.968-0.881,1.968-1.968V54.146c0-1.087-0.881-1.968-1.968-1.968h-13.537c-1.086,0-1.968,0.881-1.968,1.968V66.109z M412.706,83.638c0-0.782-0.634-1.417-1.417-1.417h-32.582c-0.782,0-1.417,0.634-1.417,1.417s0.634,1.417,1.417,1.417h32.582 C412.071,85.055,412.706,84.421,412.706,83.638z M412.706,75.139c0-0.782-0.634-1.417-1.417-1.417h-32.582 c-0.782,0-1.417,0.634-1.417,1.417v0c0,0.782,0.634,1.417,1.417,1.417h32.582C412.071,76.555,412.706,75.921,412.706,75.139 L412.706,75.139z M412.706,66.639c0-0.782-0.634-1.417-1.417-1.417h-10.152c-0.782,0-1.417,0.634-1.417,1.417 c0,0.782,0.634,1.417,1.417,1.417h10.152C412.071,68.055,412.706,67.421,412.706,66.639z M195.708,94.6h-1.384v39.787h-6.919 v-26.64h-5.881v26.64h-7.611v-18.855h-5.882v18.855h-7.612v-31.656h-5.881v31.656h-19.72v1.384h60.891V94.6z M352.26,78.34H115.962 V59.83H352.26V78.34z M322.853,69.171c0-1.72-1.394-3.114-3.114-3.114c-1.719,0-3.114,1.394-3.114,3.114s1.394,3.114,3.114,3.114 C321.458,72.285,322.853,70.891,322.853,69.171z M333.232,69.171c0-1.72-1.394-3.114-3.114-3.114c-1.72,0-3.114,1.394-3.114,3.114 s1.394,3.114,3.114,3.114C331.838,72.285,333.232,70.891,333.232,69.171z M343.611,69.171c0-1.72-1.394-3.114-3.114-3.114 c-1.719,0-3.114,1.394-3.114,3.114s1.394,3.114,3.114,3.114C342.217,72.285,343.611,70.891,343.611,69.171z M180.312,159.297 h-8.476v-1.557c0-0.764-0.62-1.384-1.384-1.384c-0.764,0-1.384,0.62-1.384,1.384v1.557h-32.002v1.384h32.002v1.557 c0,0.764,0.62,1.384,1.384,1.384c0.764,0,1.384-0.62,1.384-1.384v-1.557h8.476V159.297z M180.312,175.211h-43.247v1.384h43.247 V175.211z M162.841,195.451c0.764,0,1.384-0.62,1.384-1.384v-1.557h16.088v-1.384h-16.088v-1.557c0-0.764-0.62-1.384-1.384-1.384 c-0.764,0-1.384,0.62-1.384,1.384v1.557h-24.391v1.384h24.391v1.557C161.457,194.831,162.077,195.451,162.841,195.451z M98.241,122.908c0-1.951-1.582-3.532-3.532-3.532H14.791c-1.951,0-3.532,1.582-3.532,3.532v5.628h86.983V122.908z M293.445,143.382h51.377v-2.768h-51.377V143.382z M295.521,170.887h7.556v-7.266h-7.556V170.887z M293.445,136.117h51.377v-2.768 h-51.377V136.117z M210.931,96.676h58.815v37.365h-58.815V96.676z M261.789,104.504h6.573V98.06h-6.573V104.504z M261.789,113.283 h6.573v-7.395h-6.573V113.283z M261.789,123.316h6.573v-8.649h-6.573V123.316z M261.789,132.657h6.573V124.7h-6.573V132.657z M253.139,104.504h7.265V98.06h-7.265V104.504z M253.139,113.283h7.265v-7.395h-7.265V113.283z M253.139,123.316h7.265v-8.649 h-7.265V123.316z M253.139,132.657h7.265V124.7h-7.265V132.657z M244.836,104.504h6.919V98.06h-6.919V104.504z M244.836,113.283 h6.919v-7.395h-6.919V113.283z M244.836,123.316h6.919v-8.649h-6.919V123.316z M244.836,132.657h6.919V124.7h-6.919V132.657z M236.187,104.504h7.265V98.06h-7.265V104.504z M236.187,113.283h7.265v-7.395h-7.265V113.283z M236.187,123.316h7.265v-8.649 h-7.265V123.316z M236.187,132.657h7.265V124.7h-7.265V132.657z M227.191,104.504h7.612V98.06h-7.612V104.504z M227.191,113.283 h7.612v-7.395h-7.612V113.283z M227.191,123.316h7.612v-8.649h-7.612V123.316z M227.191,132.657h7.612V124.7h-7.612V132.657z M218.542,104.504h7.265V98.06h-7.265V104.504z M218.542,113.283h7.265v-7.395h-7.265V113.283z M218.542,123.316h7.265v-8.649 h-7.265V123.316z M218.542,132.657h7.265V124.7h-7.265V132.657z M212.315,104.504h4.844V98.06h-4.844V104.504z M212.315,113.283 h4.844v-7.395h-4.844V113.283z M212.315,123.316h4.844v-8.649h-4.844V123.316z M212.315,132.657h4.844V124.7h-4.844V132.657z M295.521,181.266h7.556v-7.266h-7.556V181.266z M293.445,128.851h51.377v-2.768h-51.377V128.851z M282.028,206.176h1.384V92.005 h-1.384V206.176z M91.048,162.483H18.413v-28.567h72.635V162.483z M30.346,149.288H25.35v7.878h4.996V149.288z M40.402,144.292 h-4.996v12.875h4.996V144.292z M60.532,138.912h-4.996v18.255h4.996V138.912z M72.108,148.199c0-1.167-0.946-2.114-2.114-2.114 c-1.167,0-2.114,0.946-2.114,2.114c0,1.167,0.946,2.114,2.114,2.114C71.162,150.313,72.108,149.367,72.108,148.199z M72.108,141.858c0-1.167-0.946-2.114-2.114-2.114c-1.167,0-2.114,0.946-2.114,2.114c0,1.167,0.946,2.114,2.114,2.114 C71.162,143.972,72.108,143.025,72.108,141.858z M83.798,147.461h-9.8v1.413h9.8V147.461z M83.894,141.152h-9.8v1.413h9.8V141.152z M18.413,178.944h22.29v-12.939h-22.29V178.944z M250.078,157.076l-6.452,23.844l-13.89-7.209l13.17,6.836l0.374,0.373h-24.734 c-0.003,0.059-0.003,0.114-0.003,0.173c0,13.756,11.154,24.91,24.91,24.91s24.91-11.154,24.91-24.91 C268.362,169.631,260.619,159.975,250.078,157.076z M91.048,166.006h-22.29v12.939h22.29V166.006z M65.903,178.944v-12.939h-22.29 v12.939H65.903z M324.409,114.321h20.412v-2.768h-20.412V114.321z M293.445,121.586h51.377v-2.768h-51.377V121.586z M371.207,261.727c-0.246,0.032-0.42,0.258-0.388,0.505l2.466,18.903c0.029,0.227,0.223,0.392,0.445,0.392 c0.02,0,0.039-0.001,0.06-0.004c0.246-0.032,0.42-0.258,0.388-0.505l-2.466-18.903C371.68,261.869,371.456,261.687,371.207,261.727 z M89.423,228.254c-0.211,0.761-0.495,1.458-0.867,2.073c0.206-0.34,0.39-0.7,0.548-1.083c0.319,0.639,0.574,1.315,0.778,2.014 C89.877,230.211,89.718,229.203,89.423,228.254z M79.668,221.081h-1.851h-0.104h-2.235c-5.641,0-10.214,4.573-10.214,10.214v5.902 c-1.768,0.802-3.004,2.573-3.004,4.641c0,2.818,2.284,5.104,5.103,5.104c2.818,0,5.104-2.285,5.104-5.104 c0-2.068-1.236-3.839-3.004-4.641v-7.044c0-4.402,3.569-8.044,7.971-8.044h0.279v0.008c4.282-0.151,8.546,1.683,11.384,5.248 C87.557,223.674,83.916,221.081,79.668,221.081z" fill="#E0E0E0"/></g><g id="change3_1"><path clip-rule="evenodd" d="M287.727,46.102c-0.015,0.123-0.012,0.232-0.037,0.362L288.71,60 h-12.526l0.8-13.395c-0.252-0.202-0.5-0.411-0.734-0.644c-3.945-3.926-4.321-8.422-5.323-11.303 c-0.439-1.26-0.557-1.569,0.08-1.865c0.708-0.329,2.168-0.003,3.65,2.411c0.36,0.586,0.845,1.445,1.191,2.078 c0,0,0.122-10.719,0.052-12.996c-0.07-2.276,2.66-2.409,2.92-0.578c0.158,1.111,0.389,3.764,0.582,6.142l0.7-6.885 c0.384-1.806,2.786-1.642,2.931-0.079c0.021,0.226,0.029,0.516,0.03,0.765c-0.02,0.121-0.032,0.25-0.028,0.395 c0.011,0.335,0.03,0.03,0.028-0.395c0.257-1.543,2.352-1.295,2.561,0.177c0.173,1.215,0.426,4.862,0.59,7.401 c0.16-2.055,0.293-3.391,0.293-4.537c0-2.267,2.279-2.055,2.392-0.423c0.138,1.982,0.303,10.793,0.046,16.179 C288.872,43.949,288.417,45.155,287.727,46.102z M247.738,19.917c-0.748-0.063-1.282,1.557-1.629,3.176 c-0.153-0.091-0.329-0.148-0.523-0.151l0,0.001c0,0-0.75-5.897,0.698-11.893c-1.274,1.26-5.934,1.675-9.303,0.842 c-4.115-1.017-6.505-2.452-9.216-2.127c-1.689,5.239-1.745,10.29-1.745,10.29l0.121,7.041c0.054,3.186,1.634,6.062,4.056,7.813 l-0.057,6.436c0.295,4.232,4.184,7.416,8.686,7.112c4.502-0.304,7.543-4.049,7.249-8.281l-0.876-11.616l0.52-1.583 c0.222,0.544,0.746,0.883,1.312,0.74c1.694-0.43,2.901-1.814,3.048-3.544C250.266,21.947,249.219,20.043,247.738,19.917z M145.839,299.169l-0.101,3.529l-3.477,0.761c-0.141-0.126-0.283-0.253-0.419-0.375l0.217,0.419l-5.67,1.241l-0.074,1.296h-8.22 l0.023-0.039h-0.023c-0.465,0-0.932-0.073-1.388-0.206c-0.506,0.19-1.315,0.21-2.203-0.514c-0.332-0.271-0.792-0.669-1.285-1.104 l0.04,0.077c0.221,0.683,0.466,1.152-0.103,1.526c-0.367,0.242-1.418,0.422-2.36-0.69c-0.458-0.541-1.219-1.518-1.881-2.381 l0.51,1.794c0.074,0.657,0.209,1.124-0.373,1.357c-0.376,0.151-1.356,0.121-2.002-1.054c-0.202-0.369-0.485-0.925-0.778-1.515 c-2.602,1.313-5.668,2.71-6.977,2.71h-4.175c-2.545,0-5.202-2.154-5.202-4.698v0c0-2.292,1.686-4.235,3.955-4.56l12.102-1.648 c0.694-0.099,1.359,0.037,1.967,0.342c0.025,0.012,0.044,0.028,0.069,0.041l6.204,2.618c0.689-0.706,1.594-1.205,2.633-1.354 l8.976-1.648c0.694-0.099,1.342,0.074,1.966,0.342c0.064,0.027,0.121,0.059,0.182,0.089l6.822,2.88 c0.092,0.035,0.183,0.068,0.272,0.117c0.253,0.12,0.471,0.297,0.642,0.514C145.751,299.082,145.8,299.119,145.839,299.169 L145.839,299.169z M137.981,302.546c-0.017-0.022-0.035-0.046-0.052-0.068l0.018,0.064 C137.958,302.544,137.97,302.545,137.981,302.546z M90.915,246.442l-0.564-12.423c-0.078-1.718-0.524-3.33-1.247-4.775 c-2.52,6.095-11.342,6.489-16.447,6.502c0.028,0.722,0.038,1.7-0.017,2.781c0.769,0.893,1.25,2.041,1.25,3.312 c0,2.23-1.44,4.106-3.434,4.801l0.928,2.324l-0.419,5.213c-0.314,3.684,4.976,7.239,8.305,7.239c3.993,0,5.236-2.15,5.629-5.483 C88.786,254.306,91.09,250.44,90.915,246.442z M339.734,220.776c0,0.195,0.058,0.398,0.188,0.579 c0.442,0.615,1.039,1.108,1.73,1.419l9.347,4.25c1.017,0.463,2.125,0.702,3.243,0.702h4.058c0.025,0,0.043,0,0.065,0.007 c1.032,0.206,27.686,5.607,35.809,6.509c6.516,0.724,8.547-6.552,8.547-6.552l4.442-16.257l0.348-1.263l-14.842-2.534l-0.619,3.03 l-1.803,8.822c-0.033,0.159-0.174,0.275-0.337,0.275l-49.177,0.011C340.143,219.773,339.734,220.258,339.734,220.776z M378.721,172.498l-0.007,0.035l-0.008,0.025l-0.622,2.55l-0.631,2.58c1.949,7.865,12.11,0.991,13.866-0.268l0.024-6.55 l0.011-2.808c0,0,0.513,0.171,1.214,0.111c0.562-0.052,1.248-0.251,1.878-0.803c1.556-1.366,2.784-3.547,1.08-5.347 c0,0-0.003-0.004-0.007-0.004c-0.004-0.004-0.008-0.008-0.012-0.012c-0.344-0.266-2.541-1.775-3.974,1.728 c0,0-1.558-1.082-1.796-2.402c-0.238-1.32-0.519-1.991,0.412-6.168c0,0-8.561-0.06-13.677-1.38 C374.524,159.375,370.91,172.219,378.721,172.498z M197.26,56.952c0.099-1.723,0.135-2.148-0.713-2.325 c-0.942-0.197-2.854,0.882-3.797,4.381c-0.075,0.28-0.153,0.554-0.23,0.822h4.787C197.252,58.82,197.208,57.86,197.26,56.952z M189.853,55.896c-0.003-0.008-0.005-0.015-0.009-0.023c0-0.001-0.004-0.01-0.004-0.01l-0.001,0 c-0.258-0.616-0.791-1.094-1.5-1.224c-1.167-0.214-2.249,0.599-2.403,1.751l-1.203,0.162c-0.016-0.325-0.032-0.594-0.049-0.763 c-0.113-1.161-1.074-2.051-2.236-1.949c-1.113,0.097-1.916,1.053-1.874,2.127c-0.395-0.923-1.356-1.484-2.36-1.238 c-0.885,0.216-1.476,0.972-1.545,1.814c-0.465-0.554-1.203-0.825-1.939-0.602c-1.07,0.325-1.61,1.517-1.146,2.533l1.608,2.898 c0.699,1.807,3.228,1.1,2.711-1.147l0.493,1.24c0.639,1.964,3.302,1.446,3.088-0.853l0.159,0.782 c0.354,2.171,3.383,1.942,3.224-0.763c0,0-0.008-0.324-0.02-0.802h0.908l-0.049,1.034c-0.234,2.187,2.746,2.769,3.311,0.119 c0,0,0.136-0.502,0.308-1.153h1.926C190.499,57.62,189.916,56.063,189.853,55.896z" fill="#F5C0A2" fill-rule="evenodd"/></g><g id="change4_1"><path d="M45.472,138.912h4.996v18.255h-4.996V138.912z M129.96,411.72c-3.507-1.694-7.731-3.855-10.414-7.685 c-0.928-1.326-1.48-2.189-1.811-2.761h-15.112c-0.962,6.292-2.553,9.483-0.909,16.042h31.825 C133.539,417.315,134.292,413.812,129.96,411.72z M107.519,306.04l19.875,0.006c0.251-0.003,0.489-0.02,0.718-0.045h-0.015 c-0.465,0-0.932-0.073-1.388-0.206c-0.506,0.19-1.315,0.21-2.203-0.514c-0.332-0.271-0.792-0.669-1.285-1.104l0.04,0.077 c0.221,0.683,0.466,1.152-0.103,1.526c-0.367,0.242-1.418,0.422-2.36-0.69c-0.458-0.541-1.219-1.518-1.881-2.381l0.51,1.794 c0.074,0.657,0.209,1.124-0.373,1.357c-0.376,0.151-1.356,0.121-2.002-1.054c-0.202-0.369-0.485-0.925-0.778-1.515 c-2.602,1.313-5.668,2.71-6.977,2.71h-4.175c-2.545,0-5.202-2.154-5.202-4.698v0c0-2.292,1.686-4.235,3.955-4.56l12.102-1.648 c0.694-0.099,1.359,0.037,1.967,0.342c0.025,0.012,0.044,0.028,0.069,0.041l6.204,2.618c0.689-0.706,1.594-1.205,2.633-1.354 l1.616-0.297c-0.432-0.161-0.879-0.289-1.353-0.338l-25.478-3.996l-8.887-24.094c-0.175-0.479-0.39-0.921-0.631-1.336 c-0.701-2.205-2.265-4.474-5.761-5.08c-0.594-0.103-1.158-0.2-1.71-0.294l0.349-5.419c-0.032,0.014-0.063,0.031-0.095,0.044 c-0.393,3.333-1.636,5.483-5.629,5.483c-3.33,0-8.619-3.555-8.305-7.239l0.018-0.22l-1.063,6.635 c-2.64,0.401-5.634,1.134-9.549,2.305c-4.333,1.296-7.513,5-7.503,10.61c0.023,13.576,3.289,25.842,7.249,35.025 c1.933,4.481,25.392,2.62,26.932-0.475c0.264-0.531,0.504-1.067,0.749-1.602l18.491-0.252 C106.734,306.197,107.138,306.133,107.519,306.04z M74.094,155.247h9.8v-1.413h-9.8V155.247z M70.39,64.167v-8.625v-8.625 c0-3.917,3.175-7.092,7.092-7.092h43.525c3.917,0,7.092,3.175,7.092,7.092v8.625v8.625c0,3.917-3.175,7.092-7.092,7.092H77.482 C73.565,71.259,70.39,68.084,70.39,64.167z M114.228,55.933l-5.371,5.369c-0.225,0.225-0.225,0.589,0,0.814 c0.112,0.112,0.26,0.168,0.407,0.168s0.295-0.056,0.407-0.168l6.184-6.184l-6.184-6.184c-0.225-0.225-0.59-0.225-0.814,0 c-0.225,0.226-0.225,0.59,0,0.814L114.228,55.933z M96.581,62.239c0.074,0.032,0.151,0.047,0.228,0.047 c0.223,0,0.435-0.13,0.528-0.348l4.872-11.314c0.126-0.292-0.009-0.63-0.301-0.756c-0.294-0.128-0.63,0.008-0.756,0.301 L96.28,61.483C96.154,61.775,96.289,62.113,96.581,62.239z M82.635,55.933l6.183,6.184c0.112,0.112,0.26,0.168,0.407,0.168 s0.295-0.056,0.407-0.168c0.225-0.225,0.225-0.59,0-0.814l-5.37-5.369l5.37-5.369c0.225-0.225,0.225-0.59,0-0.814 s-0.59-0.225-0.814,0L82.635,55.933z M401.136,59.556h10.152c0.782,0,1.417-0.634,1.417-1.417c0-0.782-0.634-1.417-1.417-1.417 h-10.152c-0.782,0-1.417,0.634-1.417,1.417C399.72,58.922,400.354,59.556,401.136,59.556z M69.994,156.654 c1.167,0,2.114-0.946,2.114-2.114c0-1.167-0.946-2.114-2.114-2.114c-1.167,0-2.114,0.946-2.114,2.114 C67.881,155.708,68.827,156.654,69.994,156.654z M141.045,135.079h5.882v-9.168h-5.882V135.079z M225.849,163.49l-0.007-0.007 c-0.057,0.057-0.108,0.119-0.164,0.177C225.734,163.602,225.792,163.546,225.849,163.49z M391.583,177.227 c0,0-12.431,9.412-14.241,0c0,0-5.669,1.81-12.199,5.473c-1.296,0.728-2.111,2.1-2.501,3.537l-2.195,7.823l-0.337-1.113 c-0.193-0.636-0.779-1.07-1.443-1.07h-38.061c-1.012,0-1.736,0.977-1.443,1.945l7.613,25.122c0.193,0.636,0.779,1.07,1.443,1.07 h11.887c0.168-0.141,0.376-0.242,0.628-0.242l49.177-0.011c0.163,0,0.304-0.116,0.337-0.275l1.803-8.822l0.619-3.03l14.842,2.534 l3.399-11.761c0.854-2.961,0.112-6.158-1.969-8.431C405.759,186.498,399.514,182.585,391.583,177.227z M402.722,227.69 c0,0-2.031,7.276-8.547,6.552c-7.268-0.806-29.353-5.212-34.667-6.279l-0.24,1.283l-3.16,15.313c0,0,22.444,12.308,47.784,5.43 c0,0,0.75-14.807,1.096-19.005c0.43-5.223,2.523-20.805,2.524-20.815l-0.347,1.263L402.722,227.69z M295.521,191.645h7.556v-7.265 h-7.556V191.645z M421.982,94.12l-5.616,5.239L413.92,97c-0.405-0.391-1.051-0.38-1.442,0.026s-0.379,1.051,0.026,1.442 l3.837,3.703l7.031-6.558c0.412-0.384,0.434-1.029,0.05-1.441C423.039,93.759,422.394,93.736,421.982,94.12z M430.44,98.008 c0,6.901-5.594,12.495-12.495,12.495c-6.901,0-12.495-5.594-12.495-12.495c0-6.901,5.594-12.495,12.495-12.495 C424.845,85.513,430.44,91.107,430.44,98.008z M428.19,98.008c0-5.658-4.587-10.245-10.245-10.245 c-5.658,0-10.246,4.587-10.246,10.245c0,5.658,4.587,10.245,10.246,10.245C423.603,108.254,428.19,103.667,428.19,98.008z M149.694,172.271c-0.764,0-1.384,0.62-1.384,1.384v4.498c0,0.764,0.62,1.384,1.384,1.384c0.764,0,1.384-0.62,1.384-1.384v-4.498 C151.078,172.89,150.458,172.271,149.694,172.271z M188.535,411.72c-3.507-1.694-8.596-4.096-11.593-7.685 c-0.171-0.205-0.33-0.414-0.482-0.622l-2.286,13.903h-6.999l2.582-16.042h-9.654c0.705,7.128-1.461,9.47,0.185,16.042h31.825 C192.113,417.315,192.866,413.812,188.535,411.72z M269.708,51.297c-0.399-3.193-2.436-5.773-5.158-7.026 c0.002-0.011,0.006-0.041,0.006-0.041c-6.309-2.724-12.473-4.511-18.583-5.389l0.101,1.334c0.294,4.232-2.747,7.976-7.249,8.281 c-4.502,0.304-8.391-2.88-8.686-7.112l0.024-2.68c-5.919,0.724-11.858,2.318-17.899,4.839c-0.01,0.004-0.018,0.01-0.028,0.014 c-2.133,0.74-3.972,2.306-4.992,4.526l-5.88,11.787h69.199C270.317,56.983,270.064,54.137,269.708,51.297z M221.448,169.41 c-1.83,3.435-2.879,7.355-2.903,11.51h24.734l-0.374-0.373L221.448,169.41z M256.08,108.958h16.953V91.659H256.08V108.958z" fill="#EC5D67"/></g><g id="change5_1"><path d="M120.711,297.411c0.136-0.208,0.416-0.265,0.623-0.129l3.129,2.05c0.051,0.033,0.095,0.077,0.129,0.129 l3.185,4.836c0.137,0.207,0.079,0.486-0.129,0.623c-0.076,0.05-0.162,0.074-0.247,0.074c-0.146,0-0.289-0.071-0.376-0.203 l-3.133-4.758l-3.052-1.999C120.633,297.898,120.574,297.619,120.711,297.411z M112.631,305.909h5.865 c-0.448-0.055-1.018-0.326-1.445-1.103c-0.202-0.369-0.485-0.925-0.778-1.515c-1.504,0.759-3.154,1.537-4.539,2.067 C111.898,305.673,112.219,305.909,112.631,305.909z M113.017,299.281l3.226-0.162c0.626-0.033,1.239,0.368,1.45,0.97l1.053,3.096 c0.059,0.174,0.217,0.279,0.39,0.294l0.291,1.024c0.074,0.657,0.209,1.124-0.373,1.357c-0.054,0.022-0.123,0.038-0.199,0.049h3.201 c-0.395-0.09-0.836-0.32-1.258-0.819c-0.34-0.401-0.846-1.042-1.354-1.698c0.148-0.114,0.218-0.309,0.154-0.496l-1.054-3.101 c-0.345-0.979-1.305-1.614-2.346-1.574l-3.226,0.162c-0.248,0.013-0.439,0.224-0.427,0.472 C112.557,299.101,112.727,299.295,113.017,299.281z M88.832,229.78c-0.002,0.005-0.006,0.009-0.008,0.014 c-0.088,0.179-0.167,0.366-0.268,0.533C88.659,230.155,88.74,229.962,88.832,229.78z M92.186,249.258 c0,0.164-0.016,0.327-0.028,0.49c-0.521,0.055-0.934,0.481-0.934,1.018c0,0.574,0.465,1.039,1.038,1.039 c0.574,0,1.04-0.465,1.04-1.039c0-0.398-0.232-0.733-0.561-0.908c0.018-0.199,0.035-0.399,0.035-0.6 c0-1.793-0.718-3.492-1.949-4.755l0.043,0.944C91.706,246.527,92.186,247.86,92.186,249.258z M92.617,275.363 c0.013,0.137,1.194,13.702-1.189,18.669c-0.062,0.128-0.06,0.277,0.007,0.403c0.065,0.126,0.188,0.213,0.328,0.235l9.04,1.438 c0.023,0.004,0.047,0.006,0.071,0.006c0.217,0,0.408-0.158,0.443-0.38c0.039-0.245-0.128-0.476-0.374-0.515l-8.467-1.348 c2.176-5.522,1.086-18.042,1.037-18.59c-0.021-0.249-0.247-0.433-0.488-0.408C92.777,274.897,92.595,275.116,92.617,275.363z M389.927,155.09c-0.867,4.19-0.576,4.857-0.318,6.173c0.258,1.316,1.833,2.375,1.833,2.375c1.5-3.832,3.999-1.749,3.999-1.749 c8.141-12.612-0.923-13.73-0.923-13.73c-9.279-9.599-9.63-2.776-9.63-2.776c-11.379-6.775-9.797,0.474-9.797,0.474 c-4.94,1.049-1.842,4.14-1.842,4.14C368.091,155.27,389.927,155.09,389.927,155.09z M389.809,220.201 c0.034,0.008,0.068,0.012,0.102,0.012c0.205,0,0.391-0.141,0.438-0.349l6.114-26.42c0.056-0.242-0.095-0.484-0.337-0.54 c-0.243-0.054-0.484,0.096-0.54,0.337l-6.114,26.42C389.416,219.903,389.566,220.145,389.809,220.201z M360.109,192.947 l7.613,25.122c0.205,0.676-0.093,1.348-0.631,1.697l18.7-0.004v-2.733h-16.679l0.315,1.039l-3.847-12.694l1.807-8.539 c0.052-0.243-0.104-0.481-0.348-0.533c-0.241-0.051-0.481,0.105-0.533,0.348l-1.468,6.937l-3.224-10.641 c-0.193-0.636-0.779-1.07-1.443-1.07h-1.705C359.331,191.877,359.917,192.312,360.109,192.947z M391.328,167.967l0.032,2.8 c0.428-0.818,0.83-1.778,1.179-2.708C391.842,168.129,391.328,167.967,391.328,167.967z M72.656,235.745 c4.942-0.012,13.347-0.399,16.167-5.951c0.237-0.479,0.444-0.984,0.598-1.537c0.033-0.119,0.082-0.225,0.11-0.347 c-0.137-0.191-0.291-0.364-0.436-0.546c-1.412-1.774-3.178-3.117-5.124-4.003c-0.029-0.013-0.059-0.024-0.088-0.037 c-0.43-0.192-0.869-0.359-1.314-0.506c-0.088-0.029-0.176-0.056-0.265-0.083c-0.401-0.124-0.808-0.227-1.218-0.314 c-0.1-0.021-0.198-0.045-0.298-0.064c-0.449-0.085-0.901-0.147-1.356-0.188c-0.049-0.004-0.097-0.013-0.146-0.017 c-0.522-0.041-1.048-0.054-1.573-0.035c-0.828,0.029-1.655,0.133-2.473,0.311c-3.334,0.971-5.777,4.084-5.777,7.725v6.632 c1.267,0.172,2.38,0.815,3.176,1.741C72.694,237.444,72.685,236.467,72.656,235.745z M277.054,38.585l-0.81-1.515 c-0.118-0.221-0.394-0.303-0.608-0.185c-0.22,0.116-0.302,0.39-0.185,0.608l0.93,1.74c0.078,0.146,0.231,0.238,0.397,0.238 c0.024,0,2.501,0.025,3.917,2.053c0.088,0.125,0.228,0.192,0.369,0.192c0.089,0,0.18-0.026,0.258-0.081 c0.203-0.143,0.254-0.423,0.111-0.627C280.029,38.999,277.83,38.646,277.054,38.585z M391.155,386.033 c-6.567,1.375-7.635,5.498-7.635,5.498h32.679l-2.732-16.109h2.33l-11.946-82.536l-2.57-42.257 c-24.251,5.399-45.174-6.07-45.174-6.07l0.052-0.254l-28.51,26.68c-5.43,6.516-1.448,15.566-1.448,15.566l19.186,65.522h3.74 c0.121,1.65,0.062,3.288-0.381,4.541c-1.833,5.192-6.89,5.079-9.621,5.65c-6.566,1.374-7.635,5.497-7.635,5.497h32.679 l-2.661-15.689h4.874l-14.48-65.884c8.132-4.832,14.8-9.304,20.291-13.414l-1.375-10.543c-0.032-0.247,0.142-0.473,0.388-0.505 c0.249-0.04,0.473,0.142,0.505,0.388l2.466,18.903c0.027,0.208-0.096,0.394-0.282,0.469l2.081,13.571l19.548,80.364h5.594 c0.163,1.789,0.137,3.602-0.343,4.961C398.943,385.575,393.885,385.461,391.155,386.033z M253.044,9.813 c0.06-5.574-2.946-8.281-8.548-8.552c0,0-12.661-1.077-15.477-1.249c-4.01-0.249-4.174,3.221-2.984,7.914 c0.068,0.27,0.171,0.501,0.288,0.715c-0.358,0.709-0.656,1.456-0.878,2.238c-0.018,0.064-0.029,0.131-0.046,0.195 c-0.088,0.329-0.172,0.66-0.234,0.999c-0.076,0.411-0.132,0.83-0.167,1.256c-0.042,0.503-0.045,0.999-0.028,1.491 c0.005,0.152,0.021,0.301,0.031,0.452c0.024,0.345,0.059,0.686,0.111,1.024c0.025,0.161,0.052,0.321,0.082,0.481 c0.065,0.341,0.146,0.676,0.239,1.008c0.037,0.132,0.068,0.265,0.109,0.395c0.14,0.447,0.312,0.881,0.5,1.306 c0.068-1.455,0.373-5.525,1.725-9.722c2.71-0.324,5.101,1.11,9.216,2.127c3.369,0.833,8.028,0.418,9.303-0.842 c-1.448,5.996-0.698,11.893-0.698,11.893l0-0.001c0.194,0.004,0.37,0.061,0.523,0.151c0.347-1.62,0.882-3.239,1.629-3.176 c0.67,0.057,1.242,0.49,1.66,1.14c0.014,0.022,0.03,0.042,0.043,0.064c0.064,0.104,0.122,0.214,0.178,0.329 c0.032,0.067,0.062,0.137,0.092,0.207c0.042,0.102,0.086,0.201,0.122,0.31c0.059,0.177,0.108,0.362,0.148,0.554 c0.015,0.072,0.024,0.147,0.036,0.222c0.026,0.159,0.046,0.321,0.058,0.487c0.005,0.072,0.011,0.144,0.013,0.217 c0.009,0.237,0.008,0.478-0.013,0.725c-0.147,1.73-1.354,3.114-3.048,3.544c-0.283,0.072-0.555,0.023-0.785-0.112 c-0.229-0.135-0.416-0.356-0.527-0.627l-0.168,0.513l-0.352,1.07l0.024,0.325c1.702-0.296,8.558-1.879,7.782-8.099 C253.004,20.784,258.377,14.617,253.044,9.813z M243.452,156.183c-9.535,0-17.817,5.359-22.004,13.226l22.177,11.51l6.452-23.844 C247.967,156.494,245.746,156.183,243.452,156.183z M83.677,292.901c0.568-9.638-1.015-18.376-4.674-23.869l0.317-7.615 c0.011-0.248-0.183-0.458-0.431-0.468c-0.006-0.001-0.013-0.001-0.019-0.001c-0.24,0-0.439,0.189-0.449,0.432l-0.324,7.763 c-0.005,0.096,0.022,0.191,0.077,0.271c3.539,5.221,5.083,13.861,4.558,23.343L83.677,292.901z M104.273,389.322 c-0.022,0-0.041-0.01-0.062-0.012l-1.687,11.964h32.193l0.885-12.052c-0.076,0.059-0.168,0.101-0.271,0.101H104.273z M65.264,237.197v-5.902c0-0.138,0.015-0.271,0.021-0.408c-0.855,2.16-1.167,4.508-0.886,6.824 C64.67,237.515,64.955,237.336,65.264,237.197z M137.847,305.946h112.425v5.202h-17.089l17.088,106.167h-1.795h-2.817h-2.385 l-17.455-106.167h-34.191l-17.454,106.167h-6.999l2.582-16.042h-23.138l-3.639-11.951h28.702l0.145-0.9h-28.984 c-0.046,0-0.087,0.013-0.129,0.026l-5.683-18.661l-1.379,18.771c-0.082-0.083-0.195-0.135-0.32-0.135h-30.994l5.85-41.485 c0.021,0.003,0.039,0.022,0.06,0.022c0.126,0,0.252-0.053,0.341-0.156l5.598-6.487c0.162-0.188,0.142-0.473-0.047-0.635 c-0.188-0.162-0.473-0.143-0.635,0.047l-5.598,6.487c-0.074,0.086-0.105,0.191-0.104,0.296l-32.567,0.177l-0.024-0.088 c-0.203,0.029-0.406,0.061-0.611,0.088c-1.358,0.173-2.691,0.259-4.003,0.288l11.322,70.339h-1.796h-2.817H76.92l-11.674-71.002 c-7.562-1.686-13.162-6.5-14.207-14.685c-0.889-6.963,1.722-14.816,6.598-20.48H25.275L7.819,417.315H0.821L17.91,311.148H0v-5.202 h71.072c-1.01-0.647-1.863-1.542-2.448-2.647l-14.565-27.436c-0.074-0.142-0.157-0.308-0.225-0.453 c-0.104-0.226-0.007-0.493,0.219-0.598c0.226-0.103,0.493-0.007,0.598,0.219c0.062,0.132,0.137,0.284,0.204,0.412l14.564,27.434 c0.81,1.527,2.191,2.616,3.805,3.069h8.899h54.784l-5.293-0.038c-0.001,0-0.001,0-0.002,0h-8.771 c0.129-0.034,0.24-0.078,0.317-0.129c0.445-0.293,0.391-0.644,0.241-1.11c-0.046,0.015-0.092,0.034-0.139,0.034 c-0.163,0-0.32-0.089-0.4-0.245l-2.711-5.279l-4.177-1.834c-0.228-0.1-0.331-0.365-0.231-0.593 c0.101-0.228,0.368-0.328,0.593-0.231l4.323,1.898c0.095,0.042,0.173,0.114,0.22,0.207l2.784,5.422 c0.081,0.158,0.056,0.34-0.044,0.474c0.336,0.292,0.651,0.564,0.889,0.759c1.212,0.99,2.286,0.593,2.626,0.266 c0.084-0.081,0.139-0.16,0.182-0.24c1.196,0.949,2.25,0.563,2.587,0.24c0.527-0.507,0.177-0.954-0.19-1.632l-2.758-3.518 c1.417,0.552,2.72,1.332,3.86,2.301l14.924-0.001l-0.056,0.023c-2.582,0.443-5.164,1.044-7.746,1.823h-0.001v1.366L137.847,305.946 z M73.324,311.148h-4.568C70.221,311.213,71.769,311.211,73.324,311.148z M92.459,313.881c-0.002-0.248-0.203-0.447-0.45-0.447 c-0.001,0-0.002,0-0.003,0c-10.841,0.075-10.842,0.086-10.886,0.636c-0.02,0.232,0.159,0.449,0.39,0.488 c0.025,0.005,0.051,0.007,0.076,0.007c0.066,0,0.13-0.015,0.188-0.042c0.384-0.04,2.154-0.133,10.238-0.188 C92.261,314.332,92.461,314.129,92.459,313.881z M138.1,321.395c-0.13-0.212-0.406-0.278-0.618-0.149 c-0.212,0.13-0.279,0.406-0.149,0.618c1.606,2.628,2.292,5.977,2.037,9.947l-2.62,35.657c-0.018,0.248,0.168,0.464,0.416,0.482 c0.012,0,0.022,0.001,0.033,0.001c0.234,0,0.432-0.181,0.449-0.417l2.62-35.662C140.534,327.71,139.805,324.184,138.1,321.395z M90.25,311.148c0.752,0.784,1.469,1.6,2.125,2.461l35.413,2.324c0.285,0.019,0.56,0.058,0.839,0.092l17.375,1.161 c7.374,0.479,11.774,5.756,13.4,12.963l12.727,56.397l12.136-75.398H90.25z M56.288,265.168c1.156-1.044,2.544-1.813,4.082-2.273 c3.915-1.171,6.909-1.904,9.549-2.305l1.063-6.635l0.402-4.993l-0.222-0.556l-0.785-1.744c-0.504,0.166-1.032,0.278-1.591,0.278 h-1.421c0,0-0.001,0-0.001,0c-2.051,0-3.808-1.218-4.619-2.963l-4.699,2.115c-5.546,2.496-8.018,9.015-5.523,14.56 C53.374,262.544,54.7,264.067,56.288,265.168z" fill="#293237"/></g></g></svg>