<?xml version="1.0" encoding="UTF-8"?><svg xmlns="http://www.w3.org/2000/svg" xmlns:xlink="http://www.w3.org/1999/xlink" height="384.3" preserveAspectRatio="xMidYMid meet" version="1.0" viewBox="-1.3 -0.5 430.7 384.3" width="430.7" zoomAndPan="magnify"><g><g fill="#F5F5F5" id="change1_2"><path d="M362.06,56.381l15.678-14.974h45.667V12.425h-69.557v28.982h8.212V56.381z M402.378,22.868 c1.938,0,3.51,1.571,3.51,3.51c0,1.938-1.571,3.51-3.51,3.51c-1.938,0-3.51-1.571-3.51-3.51 C398.868,24.44,400.439,22.868,402.378,22.868z M389.495,22.868c1.938,0,3.51,1.571,3.51,3.51c0,1.938-1.571,3.51-3.51,3.51 c-1.938,0-3.51-1.571-3.51-3.51C385.986,24.44,387.557,22.868,389.495,22.868z M376.612,22.868c1.938,0,3.51,1.571,3.51,3.51 c0,1.938-1.571,3.51-3.51,3.51c-1.938,0-3.51-1.571-3.51-3.51C373.103,24.44,374.674,22.868,376.612,22.868z" fill="inherit"/><path d="M426.085,220.97c-1.26-1.187-2.525-2.379-3.566-3.359c-0.136,0.504-0.38,0.986-0.763,1.393 c-4.285,4.549-13.582,14.419-17.866,18.968c-0.309,0.327-0.669,0.577-1.056,0.748c1.021,0.962,2.243,2.113,3.462,3.26 c3.148,2.966,8.106,2.818,11.072-0.331c2.81-2.982,6.24-6.624,9.049-9.606C429.382,228.893,429.234,223.936,426.085,220.97z" fill="inherit"/><path d="M399.26,238.109c-1.91-1.799-4.576-4.311-6.486-6.11c-1.317-1.24-1.378-3.312-0.138-4.628 c4.285-4.549,13.582-14.419,17.866-18.968c0.166-0.176,0.348-0.326,0.54-0.457c0.037-0.025,0.077-0.042,0.115-0.065 c0.165-0.103,0.333-0.193,0.51-0.263c0.025-0.01,0.051-0.016,0.075-0.025c0.199-0.074,0.402-0.128,0.61-0.163 c0.005-0.001,0.011-0.001,0.016-0.002c0.226-0.036,0.453-0.047,0.681-0.036l-5.982-5.635c-0.097-5.196-0.8-14.59-1.122-22.342 c-0.432,0.179-0.871,0.359-1.346,0.543c4.68-1.818,7.259-3.37,8.516-4.82c8.723-7.412,5.35-22.88,5.133-23.831l2.739-0.111 c-0.226-3.69-0.492-7.377-0.771-11.064c-0.376-4.35-0.74-8.701-1.283-13.041c-0.511-4.089-3.12-7.394-6.607-8.999 c0.005-0.031,0.008-0.052,0.008-0.052c-8.305-3.586-16.416-5.925-24.457-7.013l0.094,0.576l-2.992-18.388 c1.02-0.782,1.725-1.856,1.941-3.124c0.198-1.167,0.095-2.292-0.233-3.262c0.972-2.594,1.271-5.348,0.941-8.017 c3.974-0.703,6.995-4.166,6.995-8.342c0-4.683-3.797-8.48-8.48-8.48c-3.073,0-5.756,1.64-7.243,4.087 c-7.668-3.938-18.867-1.224-22.53,8.712c0.192,0.097,0.38,0.162,0.57,0.239c0,0-0.001,0-0.001,0 c-0.412,1.434-0.616,2.953-0.559,4.526l0.554,15.087c0.189,4.917,3.434,9.421,8.405,10.946c0.27,0.083,0.541,0.142,0.812,0.205 l0.412,5.324c-7.012,1.017-14.052,3.008-21.203,5.993c-0.012,0.005-0.023,0.012-0.035,0.018c-0.904,0.313-1.76,0.753-2.557,1.29 v-75.03c0-7.931-6.43-14.361-14.361-14.361h-48.682c0-0.605,0-1.421,0-2.642c0-2.629-1.044-5.15-2.903-7.008 c-1.859-1.858-4.379-2.903-7.008-2.903h-34.281c0,0-2.975-16.112-17.787-16.437L217.708,0c-0.247,0-0.487,0.025-0.732,0.035 c-0.124,0.002-0.242-0.005-0.367-0.001l0.02,0.017c-8.898,0.533-16.057,7.567-16.748,16.422h-34.28 c-2.629,0-5.149,1.044-7.008,2.903c-1.859,1.859-2.903,4.38-2.903,7.008c0,1.221,0,2.037,0,2.642h-50.88 c-7.931,0-14.361,6.43-14.361,14.361v103.988H21.124v35.116h55.333l18.997,18.143l-5.004-4.779v47.246l-15.773-3.631 c5.189-0.043,9.789-0.359,12.444-1.177c-0.138-7.151-1.584-14.26-3.989-20.986c-1.195-3.343-2.633-6.6-4.299-9.735 c-0.813-1.53-1.586-3.002-2.53-4.331c-0.531-0.926-1.156-1.781-1.883-2.536c-2.844-2.984-7.017-4.556-11.324-3.979 c-0.744,0.1-1.472,0.256-2.173,0.473c0,0-17.234,3.296-26.488,39.462l9.173,1.326l2.437-6.521l-0.7,6.521 c0,0,4.451,0.429,10.523,0.828l-0.601-12.189l0.632,12.812l0.061-0.014l-23.387,5.541c-1.095,0.181-2.177,0.475-3.219,0.91 c-3.735,1.556-6.646,4.599-8.042,8.401c-4.795,13.057-11.045,30.079-11.045,30.079l1.751,0.575c-0.34,1.121-0.68,2.24-1.022,3.373 c-2.365,7.819-4.77,15.843-6.992,23.199c-0.364,1.181-0.551,2.392-0.602,3.604c-0.322,2.03-0.182,4.129,0.473,6.124 c1.237,3.767,3.838,6.461,7.06,7.966c0,0-0.001,0-0.001,0c-2.47,2.77-4.107,6.215-4.638,9.946 c-1.373,9.606,4.7,18.582,13.905,21.03c-0.003,0.054-0.006,0.109-0.009,0.161c-0.004,0.074-0.007,0.143-0.01,0.212 c-0.002,0.042-0.005,0.09-0.006,0.129c0,0.013-0.001,0.022-0.001,0.035c-0.005,0.121-0.009,0.226-0.012,0.323 c0,0.009-0.001,0.021-0.001,0.029c-0.001,0.024-0.001,0.042-0.002,0.065c-0.007,0.237-0.008,0.38-0.008,0.38 s-1.584,1.413-3.549,2.928c-1.616,1.247-3.49,2.562-4.956,3.219c-7.054,3.179-12.977,7.837-11.381,11.454 c1.96,4.442,9.145,4.594,17.641,1.344c0.607-0.232,1.22-0.482,1.839-0.748c0.619-0.267,1.243-0.55,1.871-0.85 c3.473-1.66,7.934-2.51,11.301-3.047c0.833-0.133,1.598-0.247,2.265-0.349c0.136-0.021,0.26-0.041,0.388-0.061 c0.09-0.014,0.187-0.029,0.272-0.042c0.002,0,0.004,0,0.005-0.001c1.465-0.228,6.258-0.409,11.052-0.54l-0.489-2.19l0.926,4.15 c0,0,15.497-2.679,34.205-5.912c12.14,2.098,20.758,3.588,20.758,3.588l0.561-2.514c-0.374-0.034-0.75-0.067-1.126-0.1 c4.765,0.42,9.513,0.89,10.95,1.206c0.085,0.019,0.18,0.039,0.269,0.059c0.126,0.028,0.249,0.055,0.383,0.084 c3.328,0.719,9.137,1.883,13.335,4.213c9.737,5.404,18.753,6.481,21.297,1.55c1.813-3.514-3.816-8.522-10.665-12.124 c-3.021-1.579-7.686-6.221-8.078-6.613c0.167,0.166,0.873,0.867,1.845,1.767c5.059-1.849,8.99-5.736,10.994-10.536h186.344 c6.904,0,12.666-4.874,14.044-11.367l-0.077,1.809h0.45c-0.331,4.153-0.944,6.942-1.873,9.276c0.005-0.006,0.01-0.011,0.015-0.017 c-2.952,3.688-10.683,8.385-16.676,11.295l2.603,4.065l-2.603-4.065c-0.911,0.442-1.783,0.844-2.591,1.195 c-3.552,1.539-4.449,3.314-4.677,5.023c-0.12,0.901,0.587,1.702,1.497,1.702h37.987c0.789,0,1.445-0.606,1.502-1.392 c0.047-0.643,0.094-1.488,0.117-2.463c0.076-3.211-0.11-7.899-1.44-11.998c-0.021-3.869,0.519-9.057,0.961-12.621h1.706 c3.695-12.264,12.275-42.506,8.087-64.231l9.174-62.164l2.353,2.217l3.792,124.179h0.95c-0.006,0.265-0.02,0.52-0.02,0.795 c0,4.837-0.283,8.538-0.518,13.692h0c-0.018,0.386-0.035,0.782-0.052,1.186c-0.006,0.15-0.012,0.307-0.018,0.46 c-0.009,0.229-0.018,0.457-0.027,0.692c-0.009,0.249-0.019,0.505-0.028,0.761c-0.005,0.148-0.01,0.296-0.015,0.446 c-0.01,0.306-0.02,0.618-0.03,0.936c-0.003,0.09-0.005,0.182-0.008,0.273c-0.066,2.245-0.114,4.768-0.126,7.716 c-0.004,0.835,0.671,1.518,1.507,1.518h26.451c0.921,0,1.642-0.823,1.493-1.732c-0.56-3.425-2.761-5.834-5.271-8.122 c0.001,0,0.003,0,0.004,0.001c-0.09-0.082-0.183-0.163-0.274-0.244c-0.757-0.682-1.532-1.359-2.301-2.049 c-0.179-0.161-0.357-0.323-0.534-0.486c-0.189-0.174-0.376-0.349-0.563-0.526c-0.189-0.18-0.375-0.363-0.56-0.546 c-0.169-0.167-0.336-0.335-0.501-0.506c-0.189-0.197-0.371-0.399-0.552-0.602c-0.15-0.167-0.301-0.334-0.446-0.506 c-0.185-0.22-0.359-0.45-0.533-0.679c-0.126-0.166-0.257-0.328-0.376-0.498c-0.185-0.262-0.352-0.538-0.52-0.814 c-0.092-0.151-0.192-0.295-0.279-0.449c-0.241-0.431-0.461-0.877-0.654-1.344c-0.003-0.007-0.007-0.012-0.009-0.019 c-0.08-0.193-0.145-0.386-0.216-0.581h0c-1.069-2.903-1.242-5.831-1.137-8.772h2.106c1.418-8.445,4.093-24.649,5.376-34.269 c1.792-13.446-0.862-33.208-0.862-33.208l0.663-33.761c-0.724-0.682-1.423-1.341-2.044-1.926 C401.665,239.237,400.249,239.041,399.26,238.109z M384.321,356.609c0.082,0.003,0.164,0.006,0.247,0.003 C384.484,356.615,384.402,356.612,384.321,356.609z M387.124,355.48c0.193-0.167,0.387-0.347,0.584-0.558 c0.25-0.267,0.502-0.522,0.755-0.768c-0.253,0.247-0.505,0.501-0.755,0.768C387.512,355.133,387.317,355.314,387.124,355.48z M384.802,356.593c0.094-0.01,0.19-0.026,0.287-0.045C384.992,356.567,384.896,356.583,384.802,356.593z M385.302,356.503 c0.165-0.044,0.331-0.098,0.501-0.17C385.633,356.404,385.466,356.459,385.302,356.503z M385.93,356.269 c0.14-0.065,0.281-0.139,0.425-0.226C386.212,356.13,386.07,356.204,385.93,356.269z M386.545,355.92 c0.133-0.088,0.266-0.187,0.401-0.295C386.811,355.733,386.677,355.832,386.545,355.92z M398.221,350.51 c-0.764-0.198-1.529-0.28-2.292-0.24c-0.471,0.024-0.941,0.092-1.41,0.201c-0.267,0.062-0.533,0.142-0.799,0.231 C395.209,350.203,396.715,350.119,398.221,350.51z M388.699,353.931c0.178-0.169,0.357-0.333,0.536-0.491 C389.056,353.598,388.877,353.763,388.699,353.931z M389.503,353.208c0.179-0.152,0.359-0.298,0.539-0.439 C389.861,352.91,389.682,353.056,389.503,353.208z M390.284,352.578c0.256-0.194,0.513-0.379,0.771-0.55 C390.798,352.199,390.541,352.385,390.284,352.578z M391.068,352.021c0.258-0.171,0.517-0.326,0.777-0.473 C391.585,351.694,391.326,351.85,391.068,352.021z M392.088,351.417c0.185-0.099,0.37-0.194,0.556-0.281 C392.458,351.223,392.273,351.317,392.088,351.417z M392.916,351.013c0.187-0.081,0.375-0.155,0.562-0.224 C393.29,350.858,393.103,350.932,392.916,351.013z M197.328,259.065v-0.624c0-0.446,0.136-0.861,0.368-1.205 c-0.232,0.344-0.368,0.759-0.368,1.205V259.065c0,0.447,0.136,0.861,0.368,1.205C197.463,259.926,197.328,259.512,197.328,259.065 z M197.328,103.699c0-0.447,0.136-0.861,0.368-1.205C197.463,102.837,197.328,103.252,197.328,103.699v0.624 c0,0.447,0.136,0.861,0.368,1.205c-0.232-0.344-0.368-0.759-0.368-1.205V103.699z M197.959,105.847 c0.39,0.39,0.929,0.632,1.524,0.632h80.447c0.472,0,0.906-0.156,1.261-0.414c-0.355,0.258-0.789,0.414-1.261,0.414h-80.447 C198.888,106.478,198.349,106.237,197.959,105.847z M279.93,101.543L279.93,101.543c0.149,0,0.294,0.015,0.434,0.044 C280.224,101.558,280.079,101.543,279.93,101.543z M197.696,197.102c-0.232-0.344-0.368-0.759-0.368-1.205v-0.624 c0-0.394,0.114-0.759,0.298-1.077c-0.185,0.318-0.298,0.683-0.298,1.077v0.624C197.328,196.343,197.463,196.758,197.696,197.102z M198.211,187.046c0.344,0.232,0.759,0.368,1.205,0.368h84.449c0.447,0,0.861-0.136,1.205-0.368 c-0.344,0.232-0.759,0.368-1.205,0.368h-84.449C198.97,187.414,198.555,187.279,198.211,187.046z M283.865,182.479 L283.865,182.479c0.447,0,0.861,0.136,1.205,0.368C284.727,182.615,284.312,182.479,283.865,182.479z M198.982,182.523 c0.14-0.029,0.285-0.044,0.434-0.044l0,0C199.268,182.479,199.123,182.494,198.982,182.523z M197.696,145.182 c-0.232-0.344-0.368-0.759-0.368-1.206v-0.624c0-0.447,0.136-0.861,0.368-1.205c-0.232,0.344-0.368,0.759-0.368,1.205v0.624 C197.328,144.423,197.463,144.838,197.696,145.182z M197.696,152.785c-0.232,0.344-0.368,0.759-0.368,1.205v0.624 c0,0.446,0.136,0.861,0.368,1.205c-0.232-0.344-0.368-0.759-0.368-1.205v-0.624C197.328,153.544,197.463,153.129,197.696,152.785z M197.328,205.911c0-0.447,0.136-0.861,0.368-1.205C197.463,205.049,197.328,205.464,197.328,205.911v0.624 c0,0.394,0.114,0.759,0.298,1.077c-0.185-0.318-0.298-0.683-0.298-1.077V205.911z M299.192,204.705 c0.232,0.344,0.368,0.759,0.368,1.205l0,0C299.56,205.464,299.425,205.049,299.192,204.705z M299.517,206.969 c-0.047,0.231-0.14,0.444-0.254,0.642C299.377,207.413,299.469,207.2,299.517,206.969z M197.959,145.501 c0.39,0.39,0.929,0.632,1.524,0.632h80.447c0.472,0,0.906-0.156,1.261-0.414c-0.355,0.258-0.789,0.414-1.261,0.414h-80.447 C198.888,146.132,198.349,145.891,197.959,145.501z M293.771,135.255c-0.082,0.042-0.167,0.078-0.254,0.109 C293.604,135.333,293.688,135.296,293.771,135.255z M294.828,134.052c-0.031,0.088-0.067,0.172-0.109,0.254 C294.761,134.224,294.797,134.14,294.828,134.052z M297.992,91.855c0.232,0.344,0.368,0.759,0.368,1.205v0.624 c0,0.595-0.241,1.134-0.631,1.524c-0.161,0.161-0.352,0.288-0.557,0.392c0.205-0.104,0.396-0.231,0.557-0.392 c0.39-0.39,0.631-0.929,0.631-1.524v-0.624C298.36,92.614,298.224,92.199,297.992,91.855z M197.959,95.209 c0.161,0.161,0.352,0.288,0.556,0.392C198.311,95.497,198.12,95.37,197.959,95.209c-0.39-0.39-0.632-0.929-0.632-1.524v-0.624 c0-0.447,0.136-0.861,0.368-1.205c-0.232,0.344-0.368,0.759-0.368,1.205v0.624C197.328,94.28,197.569,94.819,197.959,95.209z M197.5,134.306c-0.148-0.292-0.239-0.618-0.239-0.968l0,0C197.261,133.688,197.352,134.014,197.5,134.306z M197.43,183.795 c-0.109,0.258-0.169,0.542-0.169,0.839l0,0C197.261,184.337,197.321,184.054,197.43,183.795z M198.211,239.577 c-0.167-0.113-0.309-0.254-0.438-0.407C197.902,239.323,198.045,239.464,198.211,239.577z M199.484,261.221h80.447 c0.366,0,0.705-0.1,1.007-0.26c-0.302,0.161-0.641,0.26-1.007,0.26H199.484c-0.447,0-0.861-0.136-1.206-0.368 C198.622,261.085,199.037,261.221,199.484,261.221z M296.204,245.647h-96.72c-1.191,0-2.156,0.965-2.156,2.156v0.624 c0,0.394,0.114,0.759,0.298,1.077c-0.185-0.318-0.298-0.683-0.298-1.077v-0.624c0-1.191,0.965-2.156,2.156-2.156H296.204 c1.191,0,2.156,0.965,2.156,2.156v0.624c0,0.394-0.114,0.759-0.298,1.077c0.185-0.318,0.298-0.683,0.298-1.077v-0.624 C298.36,246.613,297.395,245.647,296.204,245.647z M199.417,239.945c-0.149,0-0.294-0.015-0.434-0.044 C199.123,239.93,199.268,239.945,199.417,239.945L199.417,239.945z M308.277,239.359c0.018-0.016,0.039-0.029,0.056-0.046 C308.316,239.33,308.295,239.343,308.277,239.359z M306.809,235.009H199.417c-0.446,0-0.861,0.136-1.205,0.368 c0.344-0.232,0.759-0.368,1.205-0.368H306.809c0.394,0,0.759,0.114,1.077,0.298C307.567,235.123,307.203,235.009,306.809,235.009z M199.417,85.202c-0.149,0-0.294-0.015-0.434-0.044C199.123,85.187,199.268,85.202,199.417,85.202L199.417,85.202z M199.417,287.133h93.386c0.663,0,1.248,0.305,1.643,0.776c-0.396-0.47-0.981-0.776-1.643-0.776H199.417 c-0.663,0-1.248,0.305-1.643,0.776C198.169,287.438,198.754,287.133,199.417,287.133z M294.828,290.626 c-0.031,0.088-0.067,0.172-0.109,0.254C294.761,290.798,294.797,290.714,294.828,290.626z M293.771,291.829 c-0.082,0.042-0.167,0.078-0.254,0.109C293.604,291.907,293.688,291.871,293.771,291.829z M197.626,301.627 c-0.185-0.318-0.298-0.683-0.298-1.077v-0.624c0-0.447,0.136-0.861,0.368-1.205c-0.232,0.344-0.368,0.759-0.368,1.205v0.624 C197.328,300.945,197.441,301.309,197.626,301.627z M342.769,183.607l3.536,3.331l8.521-4.434l-11.357,5.909 c-0.27,0.156-0.506,0.355-0.701,0.585V183.607z M354.641,206.938c-0.336-0.043-0.672-0.086-1.007-0.13 C353.969,206.852,354.305,206.895,354.641,206.938z M363.916,207.867c-0.026-0.002-0.052-0.004-0.078-0.005 C363.864,207.863,363.89,207.865,363.916,207.867z M358.986,207.439c-0.059-0.006-0.118-0.013-0.177-0.02 C358.868,207.426,358.927,207.433,358.986,207.439z M408.24,151.745l0.004-0.032l0.046-0.002l0.461-0.31L408.24,151.745z M407.623,152.161L407.623,152.161l-1.011,0.681L407.623,152.161z M384.526,84.189c0.219,0.106,0.428,0.233,0.623,0.383 C384.954,84.423,384.745,84.295,384.526,84.189z M386.26,85.88c-0.121-0.212-0.25-0.416-0.396-0.6 C386.01,85.465,386.14,85.668,386.26,85.88z M386.69,86.829c-0.08-0.235-0.177-0.458-0.282-0.672 C386.513,86.371,386.61,86.593,386.69,86.829z M385.735,85.134c-0.138-0.159-0.285-0.306-0.441-0.439 C385.449,84.829,385.597,84.974,385.735,85.134z M384.374,84.123c-0.237-0.1-0.482-0.184-0.742-0.229 C383.892,83.939,384.137,84.023,384.374,84.123z M379.932,87.575c-0.047-0.001-0.094-0.003-0.14-0.004 C379.839,87.572,379.884,87.574,379.932,87.575z M379.467,87.565c-0.101-0.001-0.196-0.002-0.285-0.003 C379.273,87.563,379.364,87.564,379.467,87.565z M379.05,87.562c-0.07,0-0.135,0-0.193,0 C378.916,87.562,378.977,87.562,379.05,87.562z M378.76,87.563c-0.033,0-0.071,0-0.098,0.001c0.002,0,0.004,0,0.007,0 C378.692,87.563,378.732,87.563,378.76,87.563z M374.107,73.889c-0.031-0.002-0.058-0.002-0.089-0.004 C374.048,73.887,374.076,73.887,374.107,73.889C374.107,73.889,374.107,73.889,374.107,73.889z M372.226,73.818 c0,0,0.001,0,0.001,0c-0.14-0.001-0.269,0.006-0.406,0.008c0.002,0,0.004,0,0.006,0C371.962,73.824,372.089,73.817,372.226,73.818 z M370.476,73.861c0,0,0.001,0,0.001,0c-0.08,0.004-0.154,0.013-0.233,0.018c0.003,0,0.005,0,0.007-0.001 C370.328,73.874,370.399,73.866,370.476,73.861z M360.844,75.472c-0.048,0.005-0.097,0.011-0.145,0.016 C360.747,75.483,360.796,75.478,360.844,75.472z M357.797,75.308c0.083,0.022,0.165,0.039,0.247,0.057 C357.962,75.347,357.879,75.329,357.797,75.308z M358.7,75.48c0.071,0.009,0.142,0.021,0.213,0.027 C358.842,75.5,358.771,75.488,358.7,75.48z M359.779,75.544c0.019,0,0.038-0.002,0.057-0.002 C359.818,75.542,359.798,75.544,359.779,75.544z M344.95,143.244l-2.181-2.055l0,0L344.95,143.244z M306.809,80.267 c0.394,0,0.759,0.114,1.077,0.298C307.567,80.38,307.203,80.267,306.809,80.267H199.417c-0.446,0-0.861,0.136-1.205,0.368 c0.344-0.232,0.759-0.368,1.205-0.368H306.809z M276.823,41.974c1.162-1.161,2.005-2.582,2.475-4.125 c0.281-0.926,0.428-1.897,0.428-2.883c0,0.986-0.147,1.956-0.428,2.883C278.828,39.393,277.985,40.813,276.823,41.974 c-1.859,1.859-4.379,2.903-7.008,2.903l0,0C272.444,44.877,274.964,43.833,276.823,41.974z M162.719,44.449 c-1.544-0.469-2.964-1.313-4.126-2.475c-0.772-0.771-1.394-1.661-1.868-2.622c0.474,0.96,1.096,1.85,1.868,2.622 C159.755,43.136,161.175,43.98,162.719,44.449z M132.559,129.875L132.559,129.875v29.928l0,0V129.875z M132.559,233.475 L132.559,233.475v29.928l0,0V233.475z M44.592,365.369c-0.013-0.056-0.019-0.115-0.01-0.177 C44.573,365.253,44.579,365.312,44.592,365.369z M44.655,365.517c-0.015-0.023-0.025-0.049-0.036-0.074 C44.63,365.469,44.641,365.493,44.655,365.517z M56.884,366.443l-0.019-0.103l18.283,2.612c0.106,0.015,0.194,0.069,0.266,0.138 L56.884,366.443z M26.018,331.934l-0.098-3.25l-0.665-22.024L26.018,331.934z M77.217,304.331c0,0.405-0.036,0.8-0.088,1.191 C77.181,305.132,77.217,304.736,77.217,304.331z M77.084,305.82c-0.059,0.351-0.133,0.696-0.231,1.032 C76.951,306.517,77.025,306.171,77.084,305.82z M76.826,306.956c-0.114,0.376-0.257,0.739-0.417,1.093 C76.569,307.696,76.712,307.332,76.826,306.956z M76.317,308.24c-0.158,0.329-0.333,0.647-0.529,0.952 C75.984,308.887,76.158,308.568,76.317,308.24z M75.75,309.253c-0.223,0.342-0.47,0.667-0.737,0.974 C75.28,309.92,75.527,309.595,75.75,309.253z M74.979,310.266c-0.269,0.307-0.557,0.595-0.865,0.864 C74.422,310.862,74.71,310.572,74.979,310.266z M74.112,311.131c-1.585,1.381-3.651,2.223-5.919,2.223 c-2.281,0-4.358-0.853-5.947-2.249c0.627,0.549,1.33,1.013,2.092,1.375l7.66,0.024C72.768,312.145,73.479,311.681,74.112,311.131z M62.238,311.097c-0.309-0.272-0.6-0.564-0.869-0.875C61.638,310.533,61.928,310.826,62.238,311.097z M59.257,305.516 c-0.051-0.389-0.087-0.782-0.087-1.185C59.17,304.734,59.206,305.128,59.257,305.516z M61.359,310.212 c-0.266-0.309-0.511-0.635-0.734-0.978C60.848,309.577,61.093,309.904,61.359,310.212z M60.58,309.16 c-0.192-0.302-0.365-0.617-0.52-0.942C60.216,308.543,60.388,308.858,60.58,309.16z M59.973,308.037 c-0.159-0.353-0.301-0.715-0.414-1.09C59.673,307.322,59.813,307.684,59.973,308.037z M59.528,306.827 c-0.095-0.33-0.168-0.668-0.226-1.012C59.36,306.159,59.433,306.498,59.528,306.827z M103.893,352.739 c-0.018-0.003-0.036-0.007-0.055-0.011C103.857,352.732,103.875,352.736,103.893,352.739z M101.522,352.202 c-0.009-0.002-0.017-0.004-0.026-0.007C101.505,352.198,101.514,352.2,101.522,352.202z M100.422,351.907 c-0.019-0.005-0.038-0.011-0.057-0.016C100.384,351.896,100.403,351.902,100.422,351.907z M98.412,351.301 c-0.002,0-0.004-0.001-0.006-0.002C98.408,351.3,98.41,351.301,98.412,351.301z M97.593,351.03 c-0.024-0.008-0.047-0.016-0.07-0.024C97.546,351.014,97.57,351.022,97.593,351.03z M96.837,350.767 c-0.009-0.003-0.017-0.006-0.026-0.009C96.82,350.761,96.828,350.764,96.837,350.767z M95.808,350.388 c-0.014-0.005-0.025-0.01-0.038-0.014C95.781,350.378,95.795,350.383,95.808,350.388z M95.519,350.276 c-0.02-0.008-0.022-0.009-0.037-0.014C95.494,350.266,95.505,350.27,95.519,350.276z M115.327,351.44L115.327,351.44 c-0.085,0.041-0.171,0.082-0.257,0.123C115.156,351.522,115.242,351.481,115.327,351.44z M73.758,239.26l-0.081-2.933 L73.758,239.26L73.758,239.26z M17.751,330.576c0.061-0.002,0.121,0.002,0.181,0C17.872,330.578,17.812,330.574,17.751,330.576z M14.998,330.413c0.003,0,0.006,0.001,0.009,0.002C15.004,330.414,15.001,330.413,14.998,330.413z M16.37,330.554 c0.03,0.002,0.06,0.007,0.09,0.008C16.429,330.561,16.4,330.556,16.37,330.554z M20.896,330.196 c-0.108,0.024-0.216,0.036-0.324,0.058C20.679,330.231,20.788,330.22,20.896,330.196z M19.416,330.453 c-0.094,0.012-0.187,0.015-0.281,0.025C19.229,330.467,19.322,330.465,19.416,330.453z M21.846,360.543 c6.627,1.146,14.526,2.511,22.744,3.931c-1.61-0.278-3.202-0.553-4.781-0.826C33.331,362.529,27.175,361.464,21.846,360.543z M44.724,365.604c0.009,0.009,0.019,0.017,0.029,0.026C44.743,365.621,44.734,365.613,44.724,365.604z M44.865,365.706 C44.865,365.706,44.865,365.706,44.865,365.706L44.865,365.706C44.865,365.706,44.865,365.706,44.865,365.706z M46.331,334.217 l45.464,8.901l0,0L46.331,334.217z M90.86,370.943c1.668,0.128,6.244,0.484,10.825,0.888 C97.112,371.428,92.535,371.071,90.86,370.943z M90.361,370.905c0.025,0.002,0.048,0.004,0.079,0.006 C90.409,370.909,90.386,370.907,90.361,370.905z M90.589,370.922c0.057,0.004,0.118,0.009,0.186,0.014 C90.705,370.931,90.646,370.927,90.589,370.922z M105.071,352.949c0.02,0.003,0.04,0.006,0.06,0.01 C105.111,352.955,105.091,352.952,105.071,352.949z M107.521,353.232c0.015,0.001,0.031,0.002,0.046,0.003 C107.552,353.234,107.537,353.232,107.521,353.232z M108.701,353.274c0.033,0,0.065,0,0.098,0 C108.767,353.274,108.734,353.274,108.701,353.274z M109.905,353.237C109.905,353.237,109.905,353.237,109.905,353.237 c0,0,0.001,0,0.001,0C109.906,353.237,109.906,353.237,109.905,353.237z M110.635,353.161c0.054-0.007,0.108-0.016,0.162-0.024 C110.743,353.145,110.69,353.154,110.635,353.161z M111.347,353.04c0.067-0.014,0.135-0.028,0.201-0.043 C111.481,353.013,111.414,353.027,111.347,353.04z M112.042,352.868c0.063-0.018,0.127-0.035,0.189-0.054 C112.169,352.833,112.105,352.85,112.042,352.868z M129.213,359.331c0.003-0.178,0.005-0.385,0.005-0.604 C129.218,358.948,129.216,359.152,129.213,359.331z M128.258,352.658c-0.168-0.291-0.34-0.555-0.514-0.806 C127.918,352.103,128.09,352.367,128.258,352.658c0.104,0.18,0.194,0.39,0.277,0.611 C128.451,353.048,128.362,352.838,128.258,352.658z M128.594,353.434c0.077,0.226,0.148,0.462,0.207,0.715 C128.742,353.896,128.671,353.659,128.594,353.434z M128.81,354.19c0.057,0.247,0.104,0.505,0.147,0.768 C128.914,354.695,128.867,354.437,128.81,354.19z M128.99,355.166c0.04,0.271,0.075,0.545,0.103,0.821 C129.065,355.711,129.029,355.437,128.99,355.166z M129.1,356.075c0.025,0.258,0.044,0.514,0.06,0.767 C129.144,356.589,129.125,356.333,129.1,356.075z M129.173,357.048c0.015,0.268,0.026,0.531,0.033,0.781 C129.199,357.579,129.187,357.316,129.173,357.048z M129.191,360.071c-0.003,0.059-0.005,0.099-0.005,0.099 S129.188,360.132,129.191,360.071z M129.207,357.919c0.006,0.233,0.009,0.453,0.01,0.662 C129.216,358.373,129.213,358.151,129.207,357.919z M129.212,359.388c-0.002,0.123-0.005,0.233-0.008,0.33 C129.207,359.621,129.21,359.509,129.212,359.388z M129.201,359.822c-0.003,0.082-0.005,0.149-0.008,0.202 C129.195,359.971,129.198,359.902,129.201,359.822z M127.617,351.673c-0.06-0.083-0.123-0.154-0.184-0.233h0.013 C127.504,351.514,127.56,351.594,127.617,351.673z M166.73,285.275h-34.171v29.928l0,0v-29.928H166.73L166.73,285.275z M166.73,182.008h-34.171v29.928h34.171l0,0h-34.171v-29.928H166.73L166.73,182.008z M166.73,108.336h-34.171V78.409h33.487l0,0 h-33.487v29.928H166.73L166.73,108.336z M197.261,289.913c0,0.35,0.091,0.676,0.239,0.968 C197.352,290.588,197.261,290.263,197.261,289.913L197.261,289.913z M197.328,311.189v-0.624c0-0.446,0.136-0.861,0.368-1.205 c-0.232,0.344-0.368,0.759-0.368,1.205V311.189c0,0.447,0.136,0.861,0.368,1.205C197.463,312.05,197.328,311.635,197.328,311.189z M306.875,313.345H199.484c-0.447,0-0.861-0.136-1.206-0.368c0.344,0.232,0.759,0.368,1.206,0.368H306.875 c0.447,0,0.861-0.136,1.205-0.368C307.737,313.209,307.322,313.345,306.875,313.345z M309.031,311.189 c0,0.447-0.136,0.861-0.368,1.205C308.896,312.05,309.031,311.635,309.031,311.189v-0.624c0-0.446-0.136-0.861-0.368-1.205 c0.232,0.344,0.368,0.759,0.368,1.205V311.189z M309.031,195.897c0,0.447-0.136,0.861-0.368,1.205 C308.896,196.758,309.031,196.343,309.031,195.897v-0.624c0-0.394-0.114-0.759-0.298-1.077c0.185,0.318,0.298,0.683,0.298,1.077 V195.897z M309.031,154.615c0,0.446-0.136,0.861-0.368,1.205C308.896,155.476,309.031,155.061,309.031,154.615v-0.624 c0-0.447-0.136-0.861-0.368-1.205c0.232,0.344,0.368,0.759,0.368,1.205V154.615z M342.769,332.622V192.241 c0.34,0.353,0.833,0.631,1.531,0.732c-0.006,0.072,0,0.146,0.027,0.218c0.043,0.114,0.126,0.193,0.224,0.248 c-0.58,1.354,0.536,3.081,1.701,3.453c-0.013,0.083-0.013,0.169,0.02,0.254c0.062,0.165,0.208,0.258,0.369,0.292 c-0.102,2.125-0.17,3.997-0.17,5.405c0,1.076,0.512,2.039,1.315,2.661c0,0,0,0,0,0l-2.508,68.25L342.769,332.622z M348.567,205.952c-0.046-0.02-0.09-0.04-0.135-0.062C348.477,205.911,348.521,205.933,348.567,205.952z" fill="inherit"/></g><g id="change2_1"><path d="M166.73,78.409v29.928h-34.171V78.409H166.73L166.73,78.409z M166.73,129.875h-34.171v29.928h34.171 V129.875L166.73,129.875z M166.73,233.475h-34.171v29.928h34.171V233.475L166.73,233.475z M166.73,285.275h-34.171v29.928h34.171 V285.275L166.73,285.275z M166.73,182.008h-34.171v29.928h34.171V182.008L166.73,182.008z M308.965,83.046v-0.624 c0-1.191-0.965-2.156-2.156-2.156H199.417c-1.191,0-2.156,0.965-2.156,2.156v0.624c0,1.191,0.965,2.156,2.156,2.156h107.392 C307.999,85.202,308.965,84.237,308.965,83.046z M298.36,93.684v-0.624c0-1.191-0.965-2.156-2.156-2.156h-96.721 c-1.191,0-2.156,0.965-2.156,2.156v0.624c0,1.191,0.965,2.156,2.156,2.156h96.721C297.395,95.84,298.36,94.875,298.36,93.684z M282.086,104.322v-0.624c0-1.191-0.965-2.156-2.156-2.156h-80.447c-1.191,0-2.156,0.965-2.156,2.156v0.624 c0,1.191,0.965,2.156,2.156,2.156h80.447C281.121,106.478,282.086,105.513,282.086,104.322z M308.965,237.789v-0.624 c0-1.191-0.965-2.156-2.156-2.156H199.417c-1.191,0-2.156,0.965-2.156,2.156v0.624c0,1.191,0.965,2.156,2.156,2.156h107.392 C307.999,239.945,308.965,238.98,308.965,237.789z M298.36,248.427v-0.624c0-1.191-0.965-2.156-2.156-2.156h-96.721 c-1.191,0-2.156,0.965-2.156,2.156v0.624c0,1.191,0.965,2.156,2.156,2.156h96.721C297.395,250.583,298.36,249.618,298.36,248.427z M282.086,259.065v-0.624c0-1.191-0.965-2.156-2.156-2.156h-80.447c-1.191,0-2.156,0.965-2.156,2.156v0.624 c0,1.191,0.965,2.156,2.156,2.156h80.447C281.121,261.221,282.086,260.256,282.086,259.065z M294.958,133.338v-0.624 c0-1.191-0.965-2.156-2.156-2.156h-93.386c-1.191,0-2.156,0.965-2.156,2.156v0.624c0,1.191,0.965,2.156,2.156,2.156h93.386 C293.993,135.494,294.958,134.529,294.958,133.338z M282.086,143.976v-0.624c0-1.191-0.965-2.156-2.156-2.156h-80.447 c-1.191,0-2.156,0.965-2.156,2.156v0.624c0,1.191,0.965,2.156,2.156,2.156h80.447C281.121,146.132,282.086,145.167,282.086,143.976 z M309.031,154.614v-0.624c0-1.191-0.965-2.156-2.156-2.156H199.483c-1.191,0-2.156,0.965-2.156,2.156v0.624 c0,1.191,0.965,2.156,2.156,2.156h107.392C308.066,156.77,309.031,155.805,309.031,154.614z M294.958,289.913v-0.624 c0-1.191-0.965-2.156-2.156-2.156h-93.386c-1.191,0-2.156,0.965-2.156,2.156v0.624c0,1.191,0.965,2.156,2.156,2.156h93.386 C293.993,292.068,294.958,291.103,294.958,289.913z M282.086,300.551v-0.624c0-1.191-0.965-2.156-2.156-2.156h-80.447 c-1.191,0-2.156,0.965-2.156,2.156v0.624c0,1.191,0.965,2.156,2.156,2.156h80.447C281.121,302.706,282.086,301.741,282.086,300.551 z M309.031,311.189v-0.624c0-1.191-0.965-2.156-2.156-2.156H199.483c-1.191,0-2.156,0.965-2.156,2.156v0.624 c0,1.191,0.965,2.156,2.156,2.156h107.392C308.066,313.345,309.031,312.379,309.031,311.189z M286.021,185.258v-0.624 c0-1.191-0.965-2.156-2.156-2.156h-84.449c-1.191,0-2.156,0.965-2.156,2.156v0.624c0,1.191,0.965,2.156,2.156,2.156h84.449 C285.056,187.414,286.021,186.449,286.021,185.258z M309.031,195.896v-0.624c0-1.191-0.965-2.156-2.156-2.156H199.483 c-1.191,0-2.156,0.965-2.156,2.156v0.624c0,1.191,0.965,2.156,2.156,2.156h107.392 C308.066,198.052,309.031,197.087,309.031,195.896z M299.56,206.534v-0.624c0-1.191-0.965-2.156-2.156-2.156h-97.921 c-1.191,0-2.156,0.965-2.156,2.156v0.624c0,1.191,0.965,2.156,2.156,2.156h97.921C298.595,208.69,299.56,207.725,299.56,206.534z M217.708,0c-9.395,0-17.108,7.262-17.826,16.474l0,0h-34.28c-2.629,0-5.149,1.044-7.008,2.903 c-1.859,1.859-2.903,4.38-2.903,7.008c0,5.761,0,2.821,0,8.581c0,2.629,1.044,5.15,2.903,7.008 c1.859,1.859,4.379,2.903,7.008,2.903c23.231,0,80.983,0,104.214,0c2.629,0,5.149-1.044,7.008-2.903 c1.859-1.858,2.903-4.379,2.903-7.008c0-5.761,0-2.821,0-8.581c0-2.629-1.044-5.15-2.903-7.008 c-1.859-1.858-4.379-2.903-7.008-2.903h-34.28 M235.534,16.474c0,0-3.121-16.945-18.925-16.439 M105.403,147.376v35.116h-9.95 v18.143l-18.997-18.143H21.124v-35.116H105.403z M33.884,161.545h33.236v-2.227H33.884V161.545z M92.642,168.221H33.884v2.227 h58.758V168.221z M423.406,12.425v28.982h-45.667L362.06,56.381V41.407h-8.212V12.425H423.406z M380.122,26.378 c0-1.938-1.571-3.51-3.51-3.51c-1.938,0-3.51,1.571-3.51,3.51c0,1.938,1.571,3.51,3.51,3.51 C378.551,29.888,380.122,28.316,380.122,26.378z M393.005,26.378c0-1.938-1.571-3.51-3.51-3.51c-1.938,0-3.51,1.571-3.51,3.51 c0,1.938,1.571,3.51,3.51,3.51C391.434,29.888,393.005,28.316,393.005,26.378z M405.887,26.378c0-1.938-1.571-3.51-3.51-3.51 c-1.938,0-3.51,1.571-3.51,3.51c0,1.938,1.571,3.51,3.51,3.51C404.316,29.888,405.887,28.316,405.887,26.378z" fill="#E0E0E0"/></g><g id="change1_1"><path d="M90.449,170.447H33.884v-2.227h56.565l0,0h2.193v2.227H90.449L90.449,170.447z M342.769,43.388v293.691 c0,7.931-6.43,14.361-14.361,14.361H104.81c-5.771,0-10.733-3.412-13.016-8.322l-45.464-8.901 c-0.081-0.016-0.149-0.054-0.209-0.101H26.084l-0.065-2.181l-1.732-57.388h66.163v-78.69l5.004,4.779v-18.143h9.95v-35.116H90.449 V43.388c0-7.931,6.43-14.361,14.361-14.361h50.88c0,2.25,0,1.4,0,5.939c0,2.629,1.044,5.15,2.903,7.008 c1.859,1.859,4.379,2.903,7.008,2.903c23.231,0,80.983,0,104.214,0c2.629,0,5.149-1.044,7.008-2.903 c1.859-1.858,2.903-4.379,2.903-7.008c0-4.54,0-3.69,0-5.939h48.682C336.34,29.027,342.769,35.457,342.769,43.388z M59.17,304.331 c0,4.983,4.04,9.023,9.023,9.023s9.023-4.04,9.023-9.023s-4.04-9.023-9.023-9.023S59.17,299.348,59.17,304.331z M91.337,342.011 c-0.564-1.54-0.888-3.196-0.888-4.932v-2.963H51.013L91.337,342.011z M197.261,83.046c0,1.191,0.965,2.156,2.156,2.156h107.392 c1.191,0,2.156-0.965,2.156-2.156v-0.624c0-1.191-0.965-2.156-2.156-2.156H199.417c-1.19,0-2.156,0.965-2.156,2.156V83.046z M296.204,95.84c1.191,0,2.156-0.965,2.156-2.156v-0.624c0-1.191-0.965-2.156-2.156-2.156h-96.72c-1.191,0-2.156,0.965-2.156,2.156 v0.624c0,1.191,0.965,2.156,2.156,2.156H296.204z M279.93,101.543h-80.447c-1.191,0-2.156,0.965-2.156,2.156v0.624 c0,1.191,0.965,2.156,2.156,2.156h80.447c1.19,0,2.156-0.965,2.156-2.156v-0.624C282.086,102.508,281.121,101.543,279.93,101.543z M197.261,133.338c0,1.191,0.965,2.156,2.156,2.156h93.386c1.191,0,2.156-0.965,2.156-2.156v-0.624 c0-1.191-0.965-2.156-2.156-2.156h-93.386c-1.19,0-2.156,0.965-2.156,2.156V133.338z M279.93,141.197h-80.447 c-1.191,0-2.156,0.965-2.156,2.156v0.624c0,1.191,0.965,2.156,2.156,2.156h80.447c1.19,0,2.156-0.965,2.156-2.156v-0.624 C282.086,142.162,281.121,141.197,279.93,141.197z M197.261,185.258c0,1.191,0.965,2.156,2.156,2.156h84.449 c1.191,0,2.156-0.965,2.156-2.156v-0.624c0-1.19-0.965-2.156-2.156-2.156h-84.449c-1.19,0-2.156,0.965-2.156,2.156V185.258z M197.328,206.534c0,1.191,0.965,2.156,2.156,2.156h97.921c1.191,0,2.156-0.965,2.156-2.156v-0.624 c0-1.191-0.965-2.156-2.156-2.156h-97.921c-1.191,0-2.156,0.965-2.156,2.156V206.534z M197.261,237.789 c0,1.191,0.965,2.156,2.156,2.156h107.392c1.191,0,2.156-0.965,2.156-2.156v-0.624c0-1.191-0.965-2.156-2.156-2.156H199.417 c-1.19,0-2.156,0.965-2.156,2.156V237.789z M296.204,250.583c1.191,0,2.156-0.965,2.156-2.156v-0.624 c0-1.191-0.965-2.156-2.156-2.156h-96.72c-1.191,0-2.156,0.965-2.156,2.156v0.624c0,1.191,0.965,2.156,2.156,2.156H296.204z M279.93,256.285h-80.447c-1.191,0-2.156,0.965-2.156,2.156v0.624c0,1.191,0.965,2.156,2.156,2.156h80.447 c1.19,0,2.156-0.965,2.156-2.156v-0.624C282.086,257.251,281.121,256.285,279.93,256.285z M166.73,285.275h-34.171v29.928h34.171 V285.275z M166.73,233.475h-34.171v29.928h34.171V233.475z M166.73,182.008h-34.171v29.928h34.171V182.008z M166.73,129.875 h-34.171v29.928h34.171V129.875z M166.73,78.409h-34.171v29.928h34.171V78.409z M197.261,289.913c0,1.191,0.965,2.156,2.156,2.156 h93.386c1.191,0,2.156-0.965,2.156-2.156v-0.624c0-1.191-0.965-2.156-2.156-2.156h-93.386c-1.19,0-2.156,0.965-2.156,2.156V289.913 z M279.93,297.771h-80.447c-1.191,0-2.156,0.965-2.156,2.156v0.624c0,1.191,0.965,2.156,2.156,2.156h80.447 c1.19,0,2.156-0.965,2.156-2.156v-0.624C282.086,298.736,281.121,297.771,279.93,297.771z M309.031,310.565 c0-1.19-0.965-2.156-2.156-2.156H199.484c-1.191,0-2.156,0.965-2.156,2.156v0.624c0,1.191,0.965,2.156,2.156,2.156h107.392 c1.191,0,2.156-0.965,2.156-2.156V310.565z M309.031,195.273c0-1.191-0.965-2.156-2.156-2.156H199.484 c-1.191,0-2.156,0.965-2.156,2.156v0.624c0,1.191,0.965,2.156,2.156,2.156h107.392c1.191,0,2.156-0.965,2.156-2.156V195.273z M309.031,153.991c0-1.191-0.965-2.156-2.156-2.156H199.484c-1.191,0-2.156,0.965-2.156,2.156v0.624 c0,1.19,0.965,2.156,2.156,2.156h107.392c1.191,0,2.156-0.965,2.156-2.156V153.991z M76.403,369.232l-31.256-4.466 c-0.27-0.039-0.525,0.15-0.565,0.425c-0.039,0.273,0.151,0.526,0.425,0.565l31.256,4.466c0.023,0.003,0.048,0.005,0.071,0.005 c0.244,0,0.458-0.18,0.494-0.43C76.867,369.523,76.676,369.271,76.403,369.232z M67.121,159.318H33.884v2.227h33.236V159.318z M76.403,369.232l-31.256-4.466c-0.27-0.039-0.525,0.15-0.565,0.425c-0.039,0.273,0.151,0.526,0.425,0.565l31.256,4.466 c0.023,0.003,0.048,0.005,0.071,0.005c0.244,0,0.458-0.18,0.494-0.43C76.867,369.523,76.676,369.271,76.403,369.232z" fill="#F5F5F5"/></g><g id="change3_1"><path clip-rule="evenodd" d="M295.7,111.761c-1.34,2.543-3.98,5.699-6.667,6.476l-3.611-9.59 L295.7,111.761z M150.703,102.05c0.562-0.025,1.086-0.286,1.445-0.718l27.907-33.488c0.707-0.849,0.593-2.109-0.256-2.816 c-0.85-0.707-2.11-0.592-2.816,0.256l-26.506,31.806l-7.382-7.381c-0.781-0.781-2.047-0.781-2.828,0s-0.781,2.047,0,2.828 l8.931,8.93c0.376,0.376,0.885,0.586,1.414,0.586C150.642,102.052,150.673,102.051,150.703,102.05z M420.989,151.197l-2.739,0.111 c-0.007-0.031-0.011-0.046-0.011-0.046l-9.489,0.14l-0.461,0.31l-0.552,0.022c-0.016,0.127-0.031,0.253-0.046,0.38l-1.081,0.728 v7.676l-7.343,3.437c-3.599,1.003-7.304,2.539-9.959,3.633l-12.352,5.807l-30.895-29.102l-0.975-9.487 c-0.029-0.276-0.293-0.476-0.548-0.446c-0.275,0.028-0.475,0.273-0.446,0.548l0.857,8.338l-11.03-10.39l5.012-9.929 c1.306-2.843,3.662-4.85,6.394-5.797c0.012-0.005,0.023-0.012,0.035-0.018c7.151-2.985,14.191-4.976,21.203-5.993l0.168,2.173 c0.468,5.639,5.236,9.959,11.232,9.448c5.997-0.51,10.478-5.495,10.01-11.134l-0.094-0.576c8.04,1.087,16.151,3.427,24.457,7.013 c0,0-0.003,0.021-0.008,0.052c3.487,1.604,6.096,4.909,6.607,8.999c0.543,4.34,0.907,8.691,1.283,13.041 C420.497,143.82,420.763,147.507,420.989,151.197z M404.601,179.959l-36.387,13.932l-0.894,0.719l-9.661,4.468 c0,0-3.447,1.44-5.48,1.633c-1.361,0.129-1.886-0.886-2.081-1.53c-0.119,0.031-0.224,0.054-0.291,0.059 c-1.951,0.149-3.309-1.547-3.068-2.274c-0.025,0.001-0.051-0.005-0.076-0.005c-0.115,2.329-0.192,4.366-0.192,5.881 c0,1.663,1.213,3.07,2.855,3.336c17.673,2.861,37.717,2.946,54.925,0.023c1.631-0.277,2.83-1.679,2.83-3.333 c0-4.869-0.787-15.114-1.134-23.452C405.514,179.595,405.076,179.775,404.601,179.959z M426.085,220.97 c-1.26-1.187-2.525-2.379-3.566-3.359c-0.136,0.504-0.38,0.986-0.763,1.393c-4.285,4.549-13.582,14.419-17.866,18.968 c-0.309,0.327-0.669,0.577-1.056,0.748c1.021,0.962,2.243,2.113,3.462,3.26c3.148,2.966,8.106,2.818,11.072-0.331 c2.81-2.982,6.24-6.624,9.049-9.606C429.382,228.893,429.234,223.936,426.085,220.97z M21.846,360.543 c-0.561-0.097-1.108-0.227-1.648-0.371c-0.003,0.054-0.006,0.109-0.009,0.161c-0.004,0.074-0.007,0.143-0.01,0.212 c-0.002,0.042-0.005,0.09-0.006,0.129c0,0.013-0.001,0.022-0.001,0.035c-0.005,0.121-0.009,0.226-0.012,0.323 c0,0.009-0.001,0.021-0.001,0.029c-0.001,0.024-0.001,0.042-0.002,0.065c-0.007,0.237-0.008,0.38-0.008,0.38 s-1.584,1.413-3.549,2.928c-1.616,1.247-3.49,2.562-4.956,3.219c-7.054,3.179-12.977,7.837-11.381,11.454 c1.96,4.442,9.145,4.594,17.641,1.344c0.607-0.232,1.22-0.482,1.839-0.748c0.619-0.267,1.243-0.55,1.871-0.85 c3.473-1.66,7.934-2.51,11.301-3.047c0.833-0.133,1.598-0.247,2.265-0.349c0.136-0.021,0.26-0.041,0.388-0.061 c0.09-0.014,0.187-0.029,0.272-0.042c0.002,0,0.004,0,0.005-0.001c0.671-0.104,2.105-0.286,3.949-0.508l0.015-11.197 C33.331,362.529,27.175,361.464,21.846,360.543z M137.302,366.822c-3.155-1.649-8.116-6.652-8.116-6.652s0.009-0.168,0.017-0.444 c0.003-0.113,0.007-0.24,0.009-0.388c0.028-1.595-0.026-5.074-0.955-6.68c-3.012-5.226-7.088-3.944-11.374-1.957 c-0.12,0.056-0.239,0.111-0.359,0.167c-1.053,0.496-2.117,1.024-3.18,1.499c-0.125,0.056-0.251,0.111-0.376,0.166 c-0.038,0.016-0.075,0.033-0.113,0.05c-0.865,0.373-1.873,0.575-2.958,0.654l-1.132,19.055c1.831,0.334,3.255,0.603,3.916,0.748 c0.085,0.019,0.18,0.039,0.269,0.059c0.126,0.028,0.249,0.055,0.383,0.084c3.328,0.719,9.137,1.883,13.335,4.213 c9.737,5.404,18.753,6.481,21.297,1.55C149.78,375.432,144.151,370.424,137.302,366.822z M24.287,274.546H112.1l-0.537,11.322 l9.24-3.807c0,0-7.482-16.517-13.221-29.188c-1.671-3.69-4.798-6.511-8.637-7.789c-0.697-0.232-1.409-0.391-2.124-0.514 l-23.483-5.406c-4.558,3.451-10.705,3.898-15.71,1.188c-0.996-0.596-1.669-0.926-1.669-0.926l-23.387,5.541 c-1.095,0.181-2.177,0.475-3.219,0.91c-3.735,1.556-6.646,4.599-8.042,8.401c-4.795,13.057-11.045,30.079-11.045,30.079 l14.461,4.751L24.287,274.546z M77.217,304.331c0-4.983-4.04-9.023-9.023-9.023s-9.023,4.04-9.023,9.023 c0,3.602,2.116,6.702,5.168,8.149l7.66,0.024C75.078,311.068,77.217,307.953,77.217,304.331z" fill="#E37F44" fill-rule="evenodd"/></g><g id="change4_1"><path clip-rule="evenodd" d="M75.669,206.709c-0.029-0.061-0.089-0.182-0.167-0.337 c-0.619,0.531-1.232,1.111-1.819,1.707c-3.982,4.042-8.568,7.44-13.637,9.991c-0.23,0.116-0.361,0.181-0.363,0.181 c-1.015,0.204-1.891,0.251-2.66,0.192c-1.209-0.593-4.46-1.971-5.781-0.362c-0.859,1.047-0.594,2.664-0.207,3.35 c0.64,1.133,1.801,3.983,3.833,4.339c0.116,0.29,0.252,0.574,0.398,0.857l0.632,12.812l0.061-0.014c0,0,0.673,0.33,1.669,0.926 c5.005,2.71,11.152,2.263,15.71-1.188l0.42,0.097l-0.081-2.933l-0.027-0.756l-0.069-1.735c1.371-0.829,2.489-2.071,3.244-3.491 c2.303-4.333,1.29-9.642,0.947-14.302C77.538,212.857,77.069,209.613,75.669,206.709z M109.899,353.237 c0.003,0,0.005-0.001,0.008-0.001c-6.032,0.441-14.494-3.003-14.494-3.003l-5.222,20.659c0,0,19.317,1.453,22.492,2.149 c-0.661-0.145-2.085-0.414-3.916-0.748L109.899,353.237z M12.016,284.931c-0.34,1.121-0.68,2.24-1.022,3.373 c-2.365,7.819-4.77,15.843-6.992,23.199c-0.364,1.181-0.551,2.392-0.602,3.604c-0.322,2.03-0.182,4.129,0.473,6.124 c2.542,7.744,10.829,10.996,18.488,8.573c1.196-0.377,2.38-0.749,3.558-1.118l-1.194-39.577L12.016,284.931z M119.099,282.763 l-7.536,3.105l-2.089,44.081c3.935,0.535,7.829-0.346,10.84-2.53c0,0,0,0,0,0c0.003,0.006,0.003,0.006,0.003,0.006 c3.692-1.263,6.716-3.973,8.361-7.515c1.649-3.536,1.781-7.594,0.36-11.235C125.886,300.467,122.43,291.404,119.099,282.763z M365.341,105.587c0.27,0.083,0.541,0.142,0.812,0.205l0.58,7.498c0.468,5.639,5.236,9.959,11.232,9.448 c5.997-0.51,10.478-5.495,10.01-11.134l-2.992-18.388c1.02-0.782,1.725-1.856,1.941-3.124c0.514-3.026-0.959-5.801-3.291-6.198 c-2.332-0.397-2.868,1.805-3.126,3.322l-0.064,0.376c-1.05-0.046-1.934-0.027-1.934-0.027c-1.17-3.458,0.434-8.956-0.18-13.104 c-11.921-2.361-16.28,2.643-21.388,0.567c-0.412,1.434-0.616,2.953-0.559,4.526l0.554,15.087 C357.125,99.558,360.371,104.062,365.341,105.587z M418.239,151.262l-9.489,0.14l-2.139,1.44v7.676l-7.343,3.437 c-3.599,1.003-7.304,2.539-9.959,3.633l-28.878,13.577l-0.703,0.33l-4.901,1.01l-11.357,5.909 c-1.091,0.629-1.629,1.966-1.158,3.133c0.302,0.747,1.044,1.434,2.482,1.467c-1.207,1.562,0.516,4.007,1.945,3.953 c-0.241,0.726,1.117,2.423,3.068,2.274c0.067-0.005,0.172-0.029,0.291-0.059c0.195,0.643,0.72,1.659,2.081,1.53 c2.033-0.193,5.48-1.633,5.48-1.633l9.661-4.468l0.894-0.719l36.387-13.932c4.68-1.818,7.259-3.37,8.516-4.82 C422.119,167.49,418.239,151.262,418.239,151.262z M397.594,341.882h-13.887c-0.006,0.265-0.02,0.52-0.02,0.795 c0,4.837-0.283,8.538-0.518,13.692c1.212,0.48,2.797,0.414,4.54-1.447c3.502-3.739,7.272-5.515,11.023-4.268 C397.663,347.751,397.489,344.823,397.594,341.882z M340.952,351.158c0.005-0.006,0.01-0.011,0.015-0.017 c5.062,6.68,11.88,5.311,15.715,3.352c0.001,0.003,0.002,0.007,0.003,0.01c-0.021-3.869,0.519-9.057,0.961-12.621h-14.821 C342.493,346.035,341.88,348.825,340.952,351.158z M319.339,162.032l4.082-2.024c2.144-0.909,1.148-3.966-1.594-3.124 c0,0-3.145,0.775-4.077,1.101c-1.165,0.408-1.839,1.62-1.444,2.789C316.73,162.024,318.157,162.617,319.339,162.032z M326.847,167.555l0.894-1.095c1.488-1.602-0.362-3.799-2.379-2.418l0.642-0.549c1.826-1.445,0.055-4.129-2.365-2.59 c0,0-3.574,2.098-4.386,2.66c-1.015,0.702-1.344,2.05-0.652,3.072c0.663,0.98,1.961,1.23,2.933,0.639 c-0.651,0.841-0.675,2.019,0.069,2.822c0.655,0.707,1.659,0.865,2.474,0.496c-0.273,0.716-0.144,1.537,0.441,2.104 c0.851,0.823,2.232,0.709,2.933-0.244l1.854-2.979C330.616,167.895,328.66,165.919,326.847,167.555z M44.582,365.19 c0.04-0.274,0.296-0.464,0.565-0.425l11.737,1.677l-0.019-0.103l-12.248-1.75l-0.026-0.116c-1.61-0.278-3.202-0.553-4.781-0.826 l-0.015,11.197c-1.844,0.222-3.279,0.404-3.949,0.508c1.465-0.228,6.258-0.409,11.052-0.54l-2.032-9.108 C44.673,365.614,44.55,365.412,44.582,365.19z" fill="#F5C0A2" fill-rule="evenodd"/></g><g id="change5_1"><path d="M45.344,237.989l0.7-6.521l-2.437,6.521l-9.173-1.326c9.254-36.166,26.488-39.462,26.488-39.462 c0.701-0.217,1.428-0.373,2.173-0.473c4.308-0.577,8.48,0.995,11.324,3.979c0.727,0.755,1.352,1.61,1.883,2.536 c0.944,1.329,1.717,2.801,2.53,4.331c1.666,3.135,3.104,6.392,4.299,9.735c2.405,6.726,3.851,13.835,3.989,20.986 c-2.811,0.865-7.793,1.173-13.356,1.185l-0.087-3.153l-0.027-0.756l-0.069-1.735c1.371-0.829,2.489-2.071,3.244-3.491 c2.303-4.333,1.29-9.642,0.947-14.302c-0.234-3.185-0.702-6.429-2.103-9.333c-0.029-0.061-0.089-0.182-0.167-0.337 c-0.619,0.531-1.232,1.111-1.819,1.707c-3.982,4.042-8.568,7.44-13.637,9.991c-0.23,0.116-0.361,0.181-0.363,0.181 c-1.015,0.204-1.891,0.251-2.66,0.192c-1.209-0.593-4.46-1.971-5.781-0.362c-0.859,1.047-0.594,2.664-0.207,3.35 c0.64,1.133,1.801,3.983,3.833,4.339c0.116,0.29,0.252,0.574,0.398,0.857l0.601,12.189 C49.796,238.419,45.344,237.989,45.344,237.989z M40.906,274.546l1.086-9.227c0.033-0.274-0.163-0.522-0.438-0.555 c-0.27-0.043-0.523,0.163-0.555,0.438l-1.1,9.344H40.906z M90.245,274.546l-1.089-10.453c-0.028-0.275-0.276-0.477-0.549-0.445 c-0.274,0.028-0.475,0.274-0.445,0.549l1.078,10.35H90.245z M407.675,152.179c0.023,0.003,0.046,0.005,0.069,0.005 c0.246,0,0.46-0.182,0.494-0.432l2.357-17.186c0.038-0.274-0.153-0.526-0.427-0.563c-0.271-0.038-0.526,0.153-0.563,0.427 l-2.357,17.186C407.211,151.89,407.402,152.142,407.675,152.179z M318.915,118.72l-20.867,22.761l-0.491-0.462l0.038-0.04 l-8.562-22.741c2.687-0.777,5.326-3.934,6.667-6.477l22.885,6.935l0.143-0.152L318.915,118.72z M356.943,75.029 c-0.189-0.077-0.378-0.142-0.57-0.239c3.663-9.936,14.862-12.65,22.53-8.712c1.488-2.447,4.171-4.087,7.243-4.087 c4.683,0,8.48,3.797,8.48,8.48c0,4.176-3.021,7.639-6.995,8.342c0.33,2.669,0.031,5.423-0.941,8.017 c-0.523-1.546-1.626-2.691-3.059-2.935c-2.332-0.397-2.868,1.805-3.126,3.322l-0.064,0.376c-0.001,0-0.002,0-0.003,0 c-0.794-0.035-1.479-0.033-1.77-0.029c-0.005,0-0.008,0-0.012,0c-0.086,0.001-0.148,0.002-0.148,0.002 c-1.17-3.458,0.434-8.956-0.18-13.104c-0.761-0.151-1.49-0.27-2.192-0.364c-0.193-0.026-0.369-0.037-0.558-0.059 c-0.5-0.059-1-0.116-1.471-0.149c-0.181-0.013-0.346-0.013-0.523-0.022c-0.462-0.024-0.922-0.047-1.358-0.05 c-0.137-0.001-0.264,0.006-0.398,0.007c-0.462,0.004-0.918,0.012-1.352,0.036c-0.077,0.004-0.148,0.012-0.224,0.017 C364.04,74.276,360.686,76.55,356.943,75.029z M356.682,354.493c1.333,4.101,1.519,8.795,1.443,12.008 c-0.023,0.975-0.069,1.82-0.117,2.463c-0.057,0.786-0.713,1.392-1.502,1.392h-37.987c-0.91,0-1.617-0.8-1.497-1.702 c0.228-1.709,1.125-3.484,4.677-5.023c0.807-0.35,1.679-0.752,2.591-1.195l2.603,4.065l-2.603-4.065 c5.993-2.91,13.724-7.607,16.676-11.295C346.029,357.821,352.847,356.451,356.682,354.493z M412.317,368.624 c0.149,0.909-0.572,1.732-1.493,1.732h-26.451c-0.835,0-1.51-0.683-1.507-1.518c0.012-2.948,0.06-5.47,0.126-7.716 c0.002-0.091,0.005-0.183,0.008-0.273c0.01-0.317,0.02-0.629,0.03-0.936c0.005-0.15,0.01-0.298,0.015-0.446 c0.009-0.257,0.018-0.512,0.028-0.761c0.009-0.235,0.018-0.463,0.027-0.692c0.006-0.153,0.012-0.31,0.018-0.46 c0.017-0.404,0.034-0.8,0.052-1.186c0.287,0.114,0.597,0.194,0.923,0.229c1.05,0.115,2.286-0.256,3.616-1.676 c2.188-2.337,4.482-3.907,6.81-4.451c0.469-0.11,0.939-0.177,1.41-0.201c0.933-0.048,1.868,0.074,2.803,0.385 c0.071,0.194,0.136,0.388,0.216,0.581c0.003,0.007,0.006,0.012,0.009,0.019c0.193,0.467,0.413,0.913,0.654,1.344 c0.086,0.155,0.187,0.299,0.279,0.449c0.168,0.275,0.335,0.551,0.52,0.814c0.12,0.17,0.25,0.333,0.376,0.498 c0.175,0.229,0.348,0.458,0.533,0.679c0.145,0.172,0.296,0.338,0.446,0.506c0.182,0.203,0.364,0.405,0.552,0.602 c0.164,0.171,0.332,0.339,0.501,0.506c0.185,0.184,0.371,0.367,0.56,0.546c0.186,0.177,0.374,0.352,0.563,0.526 c0.177,0.163,0.355,0.325,0.534,0.486c0.769,0.69,1.544,1.367,2.301,2.049c0.091,0.082,0.184,0.163,0.274,0.244 c-0.001,0-0.003,0-0.004-0.001C409.556,362.79,411.757,365.198,412.317,368.624z M413.051,207.393 c-0.229-0.011-0.456,0-0.681,0.036c-0.006,0.001-0.011,0.001-0.016,0.002c-0.208,0.034-0.411,0.088-0.61,0.163 c-0.025,0.009-0.051,0.015-0.075,0.025c-0.177,0.071-0.345,0.161-0.51,0.263c-0.038,0.023-0.078,0.04-0.115,0.065 c-0.192,0.131-0.375,0.281-0.54,0.457c-4.285,4.549-13.582,14.419-17.866,18.968c-1.24,1.316-1.178,3.388,0.138,4.628 c1.91,1.799,4.576,4.311,6.486,6.11c0.989,0.932,2.404,1.128,3.573,0.61c0.621,0.585,1.32,1.244,2.044,1.926l-0.663,33.761 c0,0,2.655,19.762,0.862,33.208c-1.283,9.619-3.958,25.823-5.376,34.269h-16.943l-3.792-124.179l-2.353-2.217l-9.174,62.164 c4.188,21.725-4.392,51.968-8.087,64.231h-16.977l2.903-68.129l2.508-68.25c0.438,0.34,0.96,0.582,1.54,0.676 c6.281,1.017,12.862,1.676,19.508,1.98l-10.146-9.557l8.632-3.992l0.894-0.719l21.688-8.304L413.051,207.393z M353.115,190.379 l-8.143,3.101c-0.059,0.022-0.118,0.033-0.178,0.033c-0.201,0-0.392-0.122-0.467-0.322c-0.099-0.258,0.031-0.547,0.289-0.645 l8.143-3.101c0.258-0.099,0.548,0.029,0.645,0.289C353.503,189.992,353.373,190.282,353.115,190.379z M355.906,194.007 l-8.989,3.427c-0.059,0.022-0.118,0.033-0.178,0.033c-0.201,0-0.392-0.122-0.467-0.322c-0.099-0.258,0.03-0.547,0.289-0.645 l8.989-3.427c0.258-0.098,0.546,0.029,0.645,0.289C356.294,193.62,356.165,193.909,355.906,194.007z M355.769,196.694 c0.108,0.254-0.01,0.548-0.264,0.656l-5.502,2.351c-0.063,0.027-0.131,0.04-0.196,0.04c-0.194,0-0.379-0.113-0.46-0.304 c-0.108-0.254,0.01-0.548,0.264-0.656l5.502-2.351C355.365,196.321,355.662,196.44,355.769,196.694z M143.338,341.466 c-0.732-5.142-3.543-9.759-7.778-12.784c-3.269-2.329-7.173-3.509-11.133-3.48c-1.231,0.948-2.611,1.71-4.109,2.222 c0,0,0,0-0.003-0.006c0,0,0,0,0,0c-3.011,2.184-6.905,3.064-10.84,2.53l-0.094,1.985l-0.104,2.181H51.013l57.276,11.214 c0.271,0.053,0.448,0.315,0.395,0.586c-0.046,0.239-0.256,0.404-0.489,0.404c-0.032,0-0.064-0.003-0.097-0.01l-61.767-12.093 c-0.081-0.016-0.149-0.054-0.209-0.101H26.084l-0.065-2.181l-0.098-3.25c-1.178,0.369-2.362,0.741-3.558,1.118 c-3.934,1.245-8.028,0.982-11.43-0.607c-2.47,2.77-4.107,6.215-4.638,9.946c-1.454,10.17,5.434,19.644,15.553,21.401 c6.627,1.146,14.526,2.511,22.744,3.931l0.026,0.116l30.531,4.362c0.273,0.039,0.464,0.292,0.425,0.565 c-0.036,0.25-0.25,0.43-0.494,0.43c-0.023,0-0.048-0.002-0.071-0.005l-30.157-4.309l2.485,11.14c0,0,15.497-2.679,34.205-5.912 c12.14,2.098,20.758,3.588,20.758,3.588l0.561-2.514c-6.104-0.55-12.668-1.043-12.668-1.043l5.222-20.659 c0,0,11.771,4.794,17.444,2.35c5.68-2.447,11.453-6.775,15.401,0.075c1.227,2.121,0.929,7.512,0.929,7.512s0.767,0.772,1.884,1.806 C139.344,358.952,144.628,350.49,143.338,341.466z M346.063,144.292l-0.975-9.487c-0.029-0.276-0.293-0.476-0.548-0.446 c-0.275,0.028-0.475,0.273-0.446,0.548l0.857,8.338l-25.308-23.839l-20.867,22.761l17.784,16.752 c0.273-0.417,0.681-0.755,1.191-0.934c0.932-0.326,4.077-1.101,4.077-1.101c2.742-0.842,3.738,2.215,1.594,3.124l-3.738,1.853 l0.911,0.858c1.325-0.806,3.044-1.816,3.044-1.816c2.42-1.539,4.192,1.145,2.365,2.59l-0.642,0.549 c2.017-1.381,3.867,0.816,2.379,2.418l-0.894,1.095c1.813-1.636,3.77,0.34,2.457,1.917l-0.569,0.915l17.571,16.551l8.521-4.434 l4.901-1.01l0.703-0.33l16.527-7.77L346.063,144.292z" fill="#293237"/></g></g></svg>