<?xml version="1.0" encoding="UTF-8"?><svg xmlns="http://www.w3.org/2000/svg" xmlns:xlink="http://www.w3.org/1999/xlink" height="382.6" preserveAspectRatio="xMidYMid meet" version="1.0" viewBox="0.0 0.0 434.7 382.6" width="434.7" zoomAndPan="magnify"><g fill="#F5F5F5" id="change1_1"><path d="M172.656,331.893H86.695v-43.6c0-2.12,1.719-3.839,3.839-3.839h78.283c2.12,0,3.839,1.719,3.839,3.839 L172.656,331.893L172.656,331.893z" fill="inherit"/><path d="M135.441,117.824c2.894,2.34,8.057,6.512,10.951,8.852c1.17,0.945,2.882,0.764,3.828-0.406 c0.019-0.023,0.028-0.035,0.045-0.056l0.001,0.001c0,0,0.673-0.833,1.184-1.465c0.149-0.184,0.219-0.419,0.193-0.654 c-0.025-0.235-0.142-0.451-0.325-0.599c-0.946-0.764-2.63-2.126-3.576-2.89c-0.184-0.149-0.419-0.218-0.654-0.193 s-0.451,0.142-0.6,0.325c-0.33,0.408-0.725,0.897-0.965,1.194l-5.264-4.254c0.234-0.29,0.565-0.699,0.854-1.056 c0.16-0.198,0.234-0.451,0.207-0.7c-0.026-0.252-0.151-0.483-0.348-0.642l-3.48-2.813c-0.197-0.159-0.448-0.233-0.699-0.205 c-0.25,0.025-0.481,0.15-0.642,0.348c-0.289,0.358-0.619,0.766-0.854,1.056l-0.002-0.002c0,0-0.105,0.13-0.265,0.327 c-0.006,0.008-0.01,0.016-0.015,0.024c-0.01,0.012-0.021,0.026-0.021,0.026l0.003,0.002 C134.097,115.214,134.288,116.892,135.441,117.824z" fill="inherit"/><path d="M70.256,50.792v53.034c0,3.909,3.169,7.079,7.079,7.079h77.15c3.91,0,7.079-3.169,7.079-7.079V50.792 c0-3.91-3.169-7.079-7.079-7.079h-77.15C73.425,43.714,70.256,46.883,70.256,50.792z M150.772,49.848 c1.308,0,2.368,1.06,2.368,2.368c0,1.307-1.06,2.368-2.368,2.368c-1.307,0-2.367-1.06-2.367-2.368 C148.405,50.907,149.465,49.848,150.772,49.848z" fill="inherit"/><path d="M172.565,335.226c-0.043,0.135-0.095,0.266-0.16,0.389C172.47,335.491,172.523,335.361,172.565,335.226z" fill="inherit"/><path d="M17.662 289.824H39.988V299.87100000000004H17.662z" fill="inherit"/><circle cx="59.711" cy="30.26" fill="inherit" r="14.479"/><path d="M305.116,11.907c1.228,0,2.223-0.995,2.223-2.223s-0.995-2.223-2.223-2.223s-2.223,0.995-2.223,2.223 S303.888,11.907,305.116,11.907z" fill="inherit"/><path d="M311.763,11.907c1.228,0,2.223-0.995,2.223-2.223s-0.995-2.223-2.223-2.223s-2.223,0.995-2.223,2.223 S310.536,11.907,311.763,11.907z" fill="inherit"/><path d="M211.488,143.847h193.5c1.519,0,2.75-1.231,2.75-2.75V18.612c0-1.519-1.231-2.75-2.75-2.75h-193.5 c-1.519,0-2.75,1.231-2.75,2.75v122.485C208.739,142.615,209.97,143.847,211.488,143.847z" fill="inherit"/><path d="M298.469,11.907c1.227,0,2.223-0.995,2.223-2.223s-0.995-2.223-2.223-2.223s-2.223,0.995-2.223,2.223 S297.241,11.907,298.469,11.907z" fill="inherit"/><path d="M352.248 342.348L270.109 342.348 270.109 372.877 236.452 372.877 236.452 381.407 382.126 381.407 382.126 372.877 352.248 372.877z" fill="inherit"/><path d="M172.341,335.733c-0.091,0.151-0.193,0.295-0.315,0.422C172.148,336.028,172.251,335.885,172.341,335.733z" fill="inherit"/><path d="M172.566,335.225C172.566,335.225,172.565,335.225,172.566,335.225c0.015-0.048,0.033-0.095,0.045-0.145 c0,0,0,0,0,0.001C172.598,335.13,172.581,335.176,172.566,335.225z" fill="inherit"/><path d="M172.342,335.732C172.342,335.733,172.342,335.733,172.342,335.732c0.023-0.038,0.043-0.078,0.064-0.118 v0.001C172.384,335.655,172.365,335.694,172.342,335.732z" fill="inherit"/><path d="M177.406,154.04H3.961c-1.94,0-3.513,1.573-3.513,3.513v109.041c0,1.94,1.573,3.513,3.513,3.513h173.444 c1.94,0,3.513-1.573,3.513-3.513V157.553C180.919,155.613,179.346,154.04,177.406,154.04z" fill="inherit"/><path d="M172.611,335.08c0.044-0.181,0.074-0.368,0.074-0.563l0.038-39.894l-0.038,39.894 C172.684,334.712,172.655,334.899,172.611,335.08z" fill="inherit"/><path d="M172.023 336.161L172.022 336.161 172.027 336.156 172.026 336.156z" fill="inherit"/><path d="M172.022,336.161c-0.136,0.142-0.289,0.268-0.456,0.373C171.734,336.428,171.887,336.304,172.022,336.161z" fill="inherit"/><path d="M171.566,336.534L171.566,336.534L171.566,336.534z" fill="inherit"/><path d="M425.393,327.548c0-35.343,0-124.108,0-152.173c0-4.775-3.873-8.646-8.646-8.646H202.769 c-4.773,0-8.646,3.871-8.646,8.646v158.259c0,4.777,3.873,8.646,8.646,8.646c34.103,0,159.645,0,205.611,0 c1.63,4.792,6.157,8.244,11.499,8.244c6.713,0,12.154-5.442,12.154-12.154C432.033,333.644,429.331,329.559,425.393,327.548z" fill="inherit"/></g><g id="change2_1"><path d="M161.563,50.792c0-3.91-3.169-7.079-7.079-7.079h-77.15c-3.91,0-7.079,3.169-7.079,7.079v8.609h91.307 L161.563,50.792L161.563,50.792z M150.772,54.583c-1.307,0-2.367-1.06-2.367-2.368s1.06-2.368,2.367-2.368 c1.308,0,2.368,1.06,2.368,2.368S152.08,54.583,150.772,54.583z M159.416,159.976c1.1,0,1.993,0.892,1.993,1.992 s-0.892,1.993-1.993,1.993s-1.993-0.892-1.993-1.993C157.423,160.868,158.315,159.976,159.416,159.976z M163.264,161.968 c0-1.1,0.892-1.992,1.993-1.992s1.993,0.892,1.993,1.992s-0.892,1.993-1.993,1.993S163.264,163.069,163.264,161.968z M396.232,24.605c0-1.213,0.984-2.197,2.197-2.197c1.213,0,2.197,0.984,2.197,2.197c0,1.213-0.984,2.197-2.197,2.197 S396.232,25.818,396.232,24.605z M389.758,24.605c0-1.213,0.984-2.197,2.197-2.197c1.214,0,2.197,0.984,2.197,2.197 c0,1.213-0.984,2.197-2.197,2.197C390.741,26.802,389.758,25.818,389.758,24.605z M383.318,24.605c0-1.213,0.984-2.197,2.197-2.197 c1.214,0,2.197,0.984,2.197,2.197c0,1.213-0.984,2.197-2.197,2.197C384.301,26.802,383.318,25.818,383.318,24.605z M169.135,161.968 c0-1.1,0.892-1.992,1.993-1.992c1.1,0,1.993,0.892,1.993,1.992s-0.892,1.993-1.993,1.993S169.135,163.069,169.135,161.968z M208.408,32.533c0-0.183,0.147-0.33,0.33-0.33h199c0.183,0,0.33,0.147,0.33,0.33s-0.147,0.33-0.33,0.33h-199 C208.556,32.863,208.408,32.715,208.408,32.533z M150.772,86.795H81.048c-0.489,0-0.886-0.396-0.886-0.886s0.396-0.886,0.886-0.886 h69.725c0.489,0,0.886,0.396,0.886,0.886S151.262,86.795,150.772,86.795z M270.109,342.348h82.138l-82.121,16.872L270.109,342.348z M314.591,332.801c-2.466,0-4.465-1.999-4.465-4.465s1.999-4.465,4.465-4.465s4.465,1.999,4.465,4.465 S317.057,332.801,314.591,332.801z M416.747,166.728H202.769c-4.773,0-8.646,3.871-8.646,8.646V314.57h231.271 c0-40.592,0-114.121,0-139.196C425.393,170.599,421.52,166.728,416.747,166.728z M414.911,305.195H204.867V176.004H414.91v129.191 H414.911z M181.367,169.158c0,0.248-0.201,0.448-0.448,0.448H0.448c-0.247,0-0.448-0.2-0.448-0.448s0.201-0.448,0.448-0.448h180.471 C181.166,168.71,181.367,168.91,181.367,169.158z M129.995,98.206c0.489,0,0.886,0.396,0.886,0.886s-0.396,0.886-0.886,0.886h-28.17 c-0.489,0-0.886-0.396-0.886-0.886s0.396-0.886,0.886-0.886H129.995z M151.658,71.923c0,0.489-0.396,0.886-0.886,0.886H81.048 c-0.489,0-0.886-0.396-0.886-0.886s0.396-0.886,0.886-0.886h69.725C151.262,71.038,151.658,71.434,151.658,71.923z M172.656,317.512 L172.656,317.512c0.008,0.001,0.016,0,0.024,0c0.007,0,0.013,0.001,0.02,0.002l-0.016,17.004c0,1.32-1.07,2.39-2.39,2.39h-81.34 c-1.32,0-2.39-1.07-2.39-2.39l0.005-5.765l0,0l0.004-4.616c0,0,0.054-0.027,0.145-0.077c0.944-0.479,1.725-1.036,2.414-1.614 c0.748-0.583,1.584-1.313,2.408-2.2c0.096-0.103,0.197-0.195,0.296-0.291c0.752-0.647,1.542-1.184,2.525-1.493 c0.047-0.014,0.094-0.029,0.141-0.042c0.099-0.028,0.202-0.05,0.305-0.074c1.813-0.386,3.675,0.15,4.919,1.62 c2.047,2.419,6.326,10.884,13.116,10.791c6.791-0.093,6.512-8.093,11.163-9.302c4.651-1.209,6.326,4.279,12.093,2.698 s7.535-10.698,12.186-11.535s7.535,4,13.116,2.605c5.317-1.329,7.428-11.769,11.315-13.318l-0.015,15.61 c-0.007-0.001-0.013-0.001-0.02-0.002C172.672,317.511,172.664,317.512,172.656,317.512z M383.539,382.571h-147.72v-10.046H383.54 L383.539,382.571L383.539,382.571z" fill="#E0E0E0"/></g><g id="change3_1"><path d="M287.625,71.831c-0.467,0-0.909-0.088-1.336-0.214c-0.121-1.146-0.24-2.373-0.372-3.688 c-0.169-1.677-0.296-3.414-0.369-5.136c0.631-0.308,1.33-0.497,2.078-0.497c2.629,0,4.768,2.139,4.768,4.768 S290.254,71.831,287.625,71.831z M300.48,70.516c2.629,0,4.768-2.139,4.768-4.768s-2.139-4.768-4.768-4.768 s-4.767,2.139-4.767,4.768C295.713,68.377,297.852,70.516,300.48,70.516z M292.767,66.412c0.203-0.239,0.446-0.422,0.737-0.532 c0.675-0.255,1.4-0.09,1.797,0.041c-0.002-0.058-0.009-0.114-0.009-0.173c0-2.861,2.327-5.188,5.188-5.188 c2.737,0,4.979,2.131,5.169,4.82l6.638-4.157c-2.101-0.695-4.464-1.692-6.092-3.155c-3.233-2.905-5.327-7.193-5.327-7.193 s-3.246,2.64-7.044,4.417c-2.996,1.401-6.354,2.262-8.317,2.691c-0.041,1.402-0.03,2.863,0.023,4.342 c0.642-0.285,1.348-0.45,2.094-0.45C290.265,61.876,292.445,63.859,292.767,66.412z M318.228,61.891 c-0.092-0.09-0.195-0.152-0.293-0.228c-1.367-1.072-3.263-0.857-4.959-0.218c-0.254,0.096-0.502,0.199-0.744,0.31l-2.742,1.717 l-3.828,2.397c-0.065,2.804-2.362,5.067-5.182,5.067c-2.647,0-4.833-1.994-5.145-4.557c-0.252-0.099-1.021-0.357-1.684-0.105 c-0.37,0.141-0.652,0.427-0.841,0.847c-0.031,2.834-2.344,5.13-5.185,5.13c-0.447,0-0.873-0.074-1.287-0.181 c0.54,4.954,1.183,8.298,3.408,10.192c1.346,1.145,3.026,2.017,5.028,2.387l-0.032,4.323c0.002,0,0.007,0,0.014,0 c2.682,2.946,6.465,4.612,10.43,4.583c3.956-0.029,7.722-1.751,10.352-4.736c0.088-0.077,0.16-0.151,0.223-0.22l-0.242-14.041 l-0.092-5.335C317.728,67.852,320.791,64.406,318.228,61.891z M360.303,302.048c0.354,1.04,0.711,2.089,1.071,3.147h28.931 c-1.406-4.485-2.729-8.634-3.964-12.449L360.303,302.048z M301.289,217.866c-1.531-3.199,0.111-7.397,2.437-14.063 c1.105-3.167,2.469-6.484,3.947-9.338c8.204,2.037,16.118,1.084,16.118,1.084c2.217,6.748,4.017,10.341,5.308,12.256 c2.005-0.425,4.334-0.381,5.488,1.297c1.963,2.855-1.779,5.492-4.213,6.258l-1.183,6.25l-0.054,7.115l-20.765,0.07l-0.093,4.939 l-0.013,0.005l0.07-9.333C304.69,222.939,302.483,220.358,301.289,217.866z M255.781,293.531c-7.499,3.758-16.23,8.061-26.435,13 c-1.093,0.531-2.222,0.897-3.362,1.137c-1.726,0.441-3.53,0.594-5.337,0.395c-4.133-0.455-7.892-2.623-10.363-5.963 c-9.792-13.299-22.705-30.946-32.114-43.924c-1.5-0.511-3.375-1.475-5.839-3.153c-6.404-4.322-12.987-11.214-15.326-13.843 c-1.194-1.418,0.653-3.223,1.855-2.642c0.628,0.293,1.236,0.65,1.846,1.008l-3.222-2.459c-0.085-0.065-0.097-0.177-0.051-0.268 c-0.149-0.134-0.295-0.27-0.435-0.405c-0.775-0.666-1.174-1.243-1.192-1.798c0.033-0.732,0.641-1.625,1.321-1.825 c0.658-0.218,1.563,0.281,2.131,0.53c-0.018-0.062-0.017-0.128,0.024-0.185c0.026-0.036,0.066-0.051,0.105-0.065 c-0.366-0.342-0.852-0.81-1.485-1.455c-1.407-1.411,0.36-3.84,2.588-3.017c0.306,0.119,0.667,0.308,1.054,0.532 c0.059-0.015,0.122-0.01,0.176,0.027l9.024,6.214c-1.882-1.532-6.262-5.122-7.631-6.452c-1.691-1.714,0.183-4.564,2.524-3.469 c1.236,0.617,10.569,7.964,15.762,11.08c0,0-4.122-10.809-0.914-11.866c2.772-0.904,8.382,8.181,11.604,14.048 c0.711,1.273,1.285,2.402,1.687,3.3c5.424,5.503,18.295,18.681,31.258,32.831c5.111-2.774,10.083-5.464,14.895-8.057 L255.781,293.531z M103.294,222.558c-1.555,1.655-3.658,2.953-6.334,3.493l0.043,5.825c-0.003,0-0.008,0-0.015,0 c-2.933,3.221-7.07,5.044-11.406,5.012c-4.327-0.032-8.445-1.915-11.321-5.179c-0.184-0.16-0.314-0.313-0.396-0.421L73.771,218.5 l0.126-8.525c-2.43-1.663-5.203-5.138-2.578-7.714c1.758-1.725,4.526-1.11,6.709-0.078l0.344-0.577 c0.957-17.839,18.545-7.664,25.68-10.626c1.107,4.36,1.601,10.194,1.661,15.536C105.8,214.524,106.044,219.63,103.294,222.558z" fill="#F5C0A2"/></g><g><g id="change4_3"><path d="M146.097,258.128c1.237,3.388,2.509,7.345,3.734,11.979H28.426c-0.101-8.55,0.28-15.256,3.34-19.386 c2.544-3.388,6.151-5.707,10.097-6.821l31.901-12.752c0,0,0.174,0.279,0.496,0.56c2.876,3.264,6.994,5.148,11.321,5.179 c4.336,0.032,8.473-1.791,11.406-5.012c0.009,0,0.018,0,0.018,0l37.219,13.895l-0.001,0.068 C139.557,248.012,144.05,252.633,146.097,258.128z M390.263,291.345c-10.282-26.752-13.981-33.457-21.091-42.726 c-1.92-2.536-4.434-4.324-7.213-5.349l-0.007-0.123l-32.514-9.404l-0.16-5.017l-20.905,0.071c0,0-0.093,4.928-0.093,4.939 c-0.021,1.102-14.991,5.121-16.292,5.552c-9.212,3.056-18.468,5.953-27.138,10.322c-9.017,4.543-18.073,9-27.167,13.387 l21.559,36.375c0,0,8.068-2.965,21.325-9.447l0.176,15.271h80.632c-0.361-1.058-0.718-2.107-1.071-3.147l26.038-9.302 L390.263,291.345z M350.692,104.792c-1.346-1.793-3.024-3.252-4.892-4.371c-1.226-0.733-2.531-1.323-3.891-1.745l-25.918-10.369 c0,0-0.083,0.128-0.231,0.291c-0.063,0.07-0.135,0.144-0.223,0.22c-2.63,2.985-6.396,4.707-10.352,4.736 c-3.965,0.029-7.747-1.637-10.43-4.583c-0.007,0-0.011,0-0.014,0c-0.001,0-0.003,0-0.003,0l-27.98,10.671l-1.589,0.606 c-5.501,1.686-10.246,6.24-12.3,11.753c-0.491,1.263-0.958,2.731-1.445,4.204c-2.205,6.861-4.416,15.801-6.075,27.64h15.826h86.033 h6.487C352.871,125.83,355.696,111.547,350.692,104.792z M313.186,60.907c-0.172-0.272-0.536-0.353-0.806-0.184l-6.433,4.029 c-0.474-2.604-2.768-4.566-5.467-4.566c-2.962,0-5.391,2.327-5.554,5.249c-0.463-0.09-1.016-0.11-1.557,0.094 c-0.124,0.048-0.242,0.106-0.354,0.177c-0.613-2.438-2.823-4.205-5.391-4.205c-0.77,0-1.525,0.162-2.247,0.482 c-2.014,0.895-3.315,2.889-3.315,5.08c0,2.527,1.72,4.735,4.182,5.37c0.514,0.132,0.952,0.193,1.381,0.193 c3.004,0,5.48-2.423,5.558-5.418c0.147-0.295,0.345-0.486,0.602-0.584c0.42-0.159,0.917-0.057,1.212,0.033 c0.44,2.669,2.757,4.653,5.484,4.653c2.927,0,5.374-2.327,5.548-5.229l6.941-4.351l0.113-0.058l0.023-0.047 C313.292,61.438,313.332,61.144,313.186,60.907z M287.625,71.456c-0.38,0-0.771-0.063-1.23-0.198 c-1.861-0.549-3.162-2.273-3.162-4.194c0-1.679,0.95-3.186,2.479-3.934c0.622-0.305,1.266-0.459,1.913-0.459 c2.422,0,4.393,1.971,4.393,4.393S290.047,71.456,287.625,71.456z M300.48,70.141c-2.422,0-4.393-1.971-4.393-4.393 s1.971-4.393,4.393-4.393s4.393,1.971,4.393,4.393C304.873,68.17,302.902,70.141,300.48,70.141z" fill="#5FA9E0"/></g><g><g id="change4_5"><path d="M146.097,258.128c1.237,3.388,2.509,7.345,3.734,11.979H28.426 c-0.101-8.55,0.28-15.256,3.34-19.386c2.544-3.388,6.151-5.707,10.097-6.821l31.901-12.752c0,0,0.174,0.279,0.496,0.56 c2.876,3.264,6.994,5.148,11.321,5.179c4.336,0.032,8.473-1.791,11.406-5.012c0.009,0,0.018,0,0.018,0l37.219,13.895 l-0.001,0.068C139.557,248.012,144.05,252.633,146.097,258.128z" fill="#5FA9E0"/></g></g><g><g id="change4_1"><path d="M59.71,13.083c-9.487,0-17.177,7.69-17.177,17.177s7.69,17.177,17.177,17.177s17.177-7.69,17.177-17.177 S69.197,13.083,59.71,13.083z M59.71,44.74c-7.997,0-14.479-6.483-14.479-14.479s6.483-14.479,14.479-14.479 c7.997,0,14.479,6.483,14.479,14.479S67.707,44.74,59.71,44.74z" fill="#5FA9E0"/></g><g><g id="change4_6"><path d="M64.623,32.107v-2.89c0-2.234-1.491-4.118-3.532-4.715v-1.16c0-0.749-0.582-1.386-1.33-1.413 c-0.786-0.028-1.431,0.601-1.431,1.38v1.194c-2.041,0.597-3.532,2.481-3.532,4.715v2.89l-1.985,2.633 c-0.229,0.304-0.012,0.739,0.368,0.739h13.06c0.381,0,0.597-0.435,0.368-0.739L64.623,32.107z" fill="#5FA9E0"/></g><g id="change4_2"><path d="M61.99,36.313c0,1.259-1.02,2.28-2.28,2.28c-1.259,0-2.28-1.02-2.28-2.28c0-0.011,0-0.021,0.001-0.032 h4.558C61.99,36.292,61.99,36.302,61.99,36.313z" fill="#5FA9E0"/></g></g></g><g><g id="change4_7"><path d="M419.879,323.546c-8.186,0-14.823,6.636-14.823,14.823s6.636,14.823,14.823,14.823 s14.823-6.636,14.823-14.823S428.065,323.546,419.879,323.546z M419.879,350.524c-6.713,0-12.154-5.442-12.154-12.154 c0-6.713,5.442-12.154,12.154-12.154s12.154,5.442,12.154,12.154S426.592,350.524,419.879,350.524z" fill="#5FA9E0"/></g><g><g id="change4_4"><path d="M417.977,343.306l-4.552-4.392c-0.481-0.464-0.494-1.23-0.031-1.71l0,0 c0.464-0.481,1.23-0.494,1.71-0.031l2.9,2.799l6.663-6.214c0.489-0.456,1.254-0.429,1.71,0.06l0,0 c0.456,0.489,0.429,1.254-0.06,1.71L417.977,343.306z" fill="#5FA9E0"/></g></g></g></g><g id="change5_1"><path d="M39.719,284.502H23.044l-3.388-4.744l-2.741,4.744c-2.967,0-5.38,2.41-5.38,5.38v9.26 c0,2.967,2.413,5.38,5.38,5.38h22.804c2.97,0,5.38-2.413,5.38-5.38v-9.26C45.099,286.912,42.689,284.502,39.719,284.502z M21.67,297.061c-1.228,0-2.223-0.995-2.223-2.223s0.995-2.223,2.223-2.223s2.223,0.995,2.223,2.223S22.897,297.061,21.67,297.061z M28.317,297.061c-1.228,0-2.223-0.995-2.223-2.223s0.995-2.223,2.223-2.223s2.223,0.995,2.223,2.223S29.544,297.061,28.317,297.061 z M34.964,297.061c-1.227,0-2.223-0.995-2.223-2.223s0.995-2.223,2.223-2.223s2.223,0.995,2.223,2.223 S36.192,297.061,34.964,297.061z M293.714,20.021h16.675l3.388,4.744l2.741-4.744c2.967,0,5.38-2.41,5.38-5.38V5.38 c0-2.967-2.413-5.38-5.38-5.38h-22.804c-2.97,0-5.38,2.413-5.38,5.38v9.26C288.334,17.61,290.744,20.021,293.714,20.021z M311.763,7.462c1.228,0,2.223,0.995,2.223,2.223s-0.995,2.223-2.223,2.223s-2.223-0.995-2.223-2.223S310.536,7.462,311.763,7.462z M305.116,7.462c1.228,0,2.223,0.995,2.223,2.223s-0.995,2.223-2.223,2.223s-2.223-0.995-2.223-2.223S303.888,7.462,305.116,7.462z M298.469,7.462c1.227,0,2.223,0.995,2.223,2.223s-0.995,2.223-2.223,2.223s-2.223-0.995-2.223-2.223S297.241,7.462,298.469,7.462z M102.776,234.03l0.952,0.355c-3.708,5.93-10.277,9.895-17.771,9.895c-7.832,0-14.665-4.325-18.264-10.706l0.94-0.376 c3.444,6.013,9.912,10.081,17.324,10.081C93.023,243.28,99.227,239.582,102.776,234.03z M336.284,229.641 c-5.357-2.41-8.034-8.31-6.585-13.808c1.648-0.98,5.722-3.866,5.387-5.583c-0.001,0.002-0.002,0.003-0.004,0.005 c-0.034-0.177-0.09-0.355-0.163-0.535c-0.01-0.024-0.02-0.048-0.03-0.072c-0.079-0.181-0.175-0.364-0.302-0.547 c-0.014-0.021-0.033-0.034-0.048-0.054c-1.167-1.618-3.46-1.662-5.44-1.242c-1.291-1.915-3.091-5.508-5.308-12.256 c0,0-7.914,0.953-16.118-1.084c0,0,6.919-10.965,19.198-7.337c8.177,2.416,12.805,8.395,11.882,15.136l9.839,4.428 c5.967,2.686,8.627,9.699,5.942,15.667C351.847,228.324,342.251,232.327,336.284,229.641z M285.638,63.081l0.837,8.232 c0,0-3.279-0.695-3.279-3.837C283.196,64.127,285.638,63.081,285.638,63.081z M377.381,296.065l-21.21,7.535 c-0.054,0.02-0.11,0.029-0.167,0.029c-0.074,0-0.149-0.017-0.218-0.05c-0.12-0.058-0.212-0.162-0.255-0.288l-10.604-30.978 c-0.09-0.262,0.05-0.546,0.311-0.635c0.261-0.092,0.546,0.05,0.635,0.311l10.441,30.499l20.733-7.365 c0.256-0.098,0.545,0.043,0.638,0.304C377.778,295.687,377.642,295.973,377.381,296.065z M106.628,188.231 c-3.387,9.888-27.141-7.433-28.258,13.373l-0.344,0.577c-2.183-1.032-4.95-1.647-6.709,0.078c-2.625,2.575,0.149,6.051,2.578,7.714 l-0.14,9.442c-15.408-4.034-10.634-31.725-10.634-31.725c0.639-8.936,5.811-12.874,14.818-12.569c0,0,20.419-0.055,24.952,0.042 C109.347,175.292,109.151,180.872,106.628,188.231z M158.719,106.074h-30.464c-3.25,0-5.889,2.639-5.889,5.892v16.104 c0,3.252,2.639,5.892,5.889,5.892h23.751l3.71,5.195l3.002-5.195c3.25,0,5.892-2.639,5.892-5.892v-16.104 C164.611,108.714,161.969,106.074,158.719,106.074z M151.451,124.749c-0.511,0.632-1.184,1.465-1.184,1.465l-0.001-0.001 c-0.017,0.021-0.027,0.033-0.045,0.056c-0.946,1.171-2.659,1.352-3.828,0.406c-2.894-2.339-8.057-6.512-10.951-8.852 c-1.153-0.932-1.344-2.61-0.442-3.779l-0.003-0.002c0,0,0.011-0.013,0.021-0.026c0.006-0.008,0.009-0.016,0.015-0.024 c0.16-0.198,0.265-0.327,0.265-0.327l0.002,0.002c0.234-0.29,0.565-0.698,0.854-1.056c0.16-0.198,0.392-0.323,0.642-0.348 c0.251-0.028,0.503,0.046,0.699,0.205l3.48,2.813c0.197,0.159,0.322,0.39,0.348,0.642c0.027,0.249-0.047,0.501-0.207,0.7 c-0.289,0.357-0.619,0.766-0.854,1.056l5.264,4.254c0.24-0.297,0.635-0.786,0.965-1.194c0.149-0.184,0.365-0.301,0.6-0.325 c0.235-0.025,0.47,0.043,0.654,0.193c0.946,0.764,2.63,2.126,3.576,2.89c0.183,0.148,0.3,0.364,0.325,0.599 C151.67,124.33,151.6,124.565,151.451,124.749z M70.737,260.152v9.956h-1v-5.734H52.505v5.734h-1v-9.956c0-0.276,0.224-0.5,0.5-0.5 h18.232C70.514,259.652,70.737,259.875,70.737,260.152z M281.242,272.431v32.764c0,0.276-0.224,0.5-0.5,0.5s-0.5-0.224-0.5-0.5 v-32.764c0-0.276,0.224-0.5,0.5-0.5S281.242,272.155,281.242,272.431z M312.288,61.224c-2.101-0.695-4.464-1.692-6.092-3.155 c-3.233-2.905-5.327-7.193-5.327-7.193s-3.246,2.64-7.044,4.417c-2.996,1.401-6.354,2.262-8.317,2.691 c-0.041,1.402-0.039,2.455,0.015,3.934c-2.326,0.93-3.395,3.142-3.395,5.256c0,2.414,1.767,4.837,4.326,5.302 c0.54,4.954,1.069,7.892,3.294,9.786c1.346,1.145,3.026,2.017,5.028,2.387l-0.032,4.323c-0.001,0-0.003,0-0.003,0l-13.365,5.097 l0.34,49.614c0.002,0.276-0.221,0.502-0.496,0.504c-0.002,0-0.003,0-0.004,0c-0.274,0-0.498-0.222-0.5-0.496l-0.337-49.241 l-0.481,0.183l0,0l-13.137,5.01c-0.898-4.702-0.168-12.057,7.379-21.722c3.272-4.193,6.205-10.954,9.07-18.057 c0.225-0.557,0.433-1.064,0.635-1.551c-0.005,0.001-0.021,0.003-0.021,0.003s1.489-6.359,4.348-11.835 c6.703-12.847,31.608-9.602,37.643,2.607c0.611,1.236,1.052,2.441,1.376,3.621c0.901,2.398,2.799,7.52,4.579,12.763 c2.465,7.253,6.554,9.41,9.807,13.615c4.891,6.318,4.87,15.527,4.225,21.333c-1.226-0.733-2.531-1.323-3.891-1.745l-9.424-3.771 l-0.003,0.037l-0.975-0.401l0.002-0.027l-1.594-0.638l-2.062,49.83c-0.012,0.269-0.233,0.479-0.5,0.479c-0.007,0-0.014,0-0.021,0 c-0.276-0.012-0.49-0.245-0.479-0.521l2.076-50.183l-12.939-5.177c0,0-0.083,0.128-0.231,0.291l-0.242-14.041l-0.092-5.335 c2.301-1.371,5.364-4.817,2.801-7.332c-0.092-0.09-0.195-0.152-0.293-0.228c-1.367-1.072-3.263-0.857-4.959-0.218 c-0.057-0.018-0.113-0.034-0.17-0.052c0.094-0.063,0.123-0.188,0.063-0.284c-0.062-0.098-0.192-0.128-0.29-0.066L312.288,61.224z" fill="#293237"/></g></svg>